# Blender 5.2.0 LTS
# www.blender.org
mtllib brazopinza.mtl
g RoverModificado.005_RoverModificado.005
v 0.165881 0.022206 0.100358
v -0.035792 -0.154163 0.101992
v 0.165673 0.020530 -0.106275
v -0.036001 -0.155839 -0.104641
v -0.034293 -0.155971 0.162685
v -0.034624 -0.158630 -0.165304
v 0.168030 0.020967 0.161046
v 0.167698 0.018308 -0.166944
v -0.115989 0.331077 -0.172032
v -0.115595 0.334238 0.217788
v -0.306224 0.164711 -0.170490
v -0.474842 0.168019 -0.162531
v -0.474456 0.171111 0.218893
v -0.305831 0.167872 0.219330
v -0.341531 0.592571 0.215923
v -0.341925 0.589412 -0.173665
v -0.626098 0.340895 -0.171362
v -0.625704 0.344053 0.218224
v -0.599452 0.709025 -0.061692
v -0.638596 0.674575 -0.091374
v -0.605460 0.703870 -0.047787
v -0.644604 0.669422 -0.077470
v -0.907383 0.892866 0.140135
v -0.946526 0.858417 0.110453
v -0.913391 0.887713 0.154040
v -0.952534 0.853264 0.124358
v -0.728706 0.597338 0.126207
v -0.689562 0.631788 0.155889
v -0.722698 0.602492 0.112302
v -0.683554 0.636942 0.141984
v -0.312189 0.159953 -0.106922
v -0.312581 0.159167 -0.168438
v -0.311981 0.161628 0.099712
v -0.312248 0.161840 0.161231
v -0.110248 0.336111 -0.170317
v -0.110516 0.336323 -0.108555
v -0.110307 0.337998 0.098078
v -0.109914 0.338788 0.159832
v -0.893046 0.771127 -0.057317
v -0.856084 0.803202 -0.092030
v -0.344743 0.209077 0.218857
v -0.415296 0.213799 0.218891
v -0.849163 0.809350 -0.078981
v -0.886124 0.777274 -0.044266
v -0.728128 0.596622 -0.042961
v -0.691166 0.628697 -0.077675
v -0.735049 0.590474 -0.056012
v -0.698087 0.622550 -0.090725
v -0.344583 0.210359 0.376852
v -0.415136 0.215080 0.376885
v -0.571631 0.390822 0.145722
v -0.604096 0.361890 0.071100
v -0.460960 0.487862 0.179987
v -0.525856 0.431109 0.180602
v -0.382482 0.555695 0.068691
v -0.414912 0.527875 0.143930
v -0.414909 0.526277 -0.077403
v -0.382443 0.555211 -0.002781
v -0.525579 0.429240 -0.111668
v -0.460683 0.485992 -0.112282
v -0.604057 0.361407 -0.000373
v -0.571627 0.389226 -0.075610
v -0.773548 0.555639 0.069701
v -0.741083 0.584572 0.144323
v -0.695307 0.624859 0.179204
v -0.630412 0.681612 0.178589
v -0.584364 0.721623 0.142530
v -0.551934 0.749443 0.067293
v -0.551895 0.748962 -0.004180
v -0.584360 0.720028 -0.078804
v -0.630135 0.679742 -0.113683
v -0.695031 0.622989 -0.113068
v -0.741079 0.582977 -0.077009
v -0.773509 0.555157 -0.001772
v -0.707324 0.613738 0.094547
v -0.724694 0.598257 0.054620
v -0.645436 0.668011 0.114917
v -0.680159 0.637645 0.115246
v -0.600772 0.706629 0.053274
v -0.618123 0.691745 0.093530
v -0.618119 0.690862 -0.029026
v -0.600748 0.706343 0.010900
v -0.680006 0.636590 -0.049396
v -0.645284 0.666955 -0.049725
v -0.724671 0.597971 0.012246
v -0.707319 0.612856 -0.028009
v -0.867608 0.761664 0.053440
v -0.850237 0.777144 0.093367
v -0.850233 0.776263 -0.029189
v -0.867585 0.761378 0.011066
v -0.788198 0.830361 -0.050906
v -0.822919 0.799996 -0.050577
v -0.743662 0.869749 0.009720
v -0.761033 0.854269 -0.030207
v -0.761037 0.855151 0.092349
v -0.743685 0.870034 0.052093
v -0.823072 0.801052 0.114066
v -0.788350 0.831418 0.113736
v -0.521381 0.335096 0.218014
v -0.518657 0.375810 0.217682
v -0.220718 0.355872 0.217542
v -0.223442 0.315159 0.217875
v -0.456713 0.429982 0.217181
v -0.406203 0.447051 0.216990
v -0.322677 0.441460 0.216952
v -0.274892 0.417814 0.217095
v -0.406044 0.448330 0.374986
v -0.456553 0.431263 0.375174
v -0.274732 0.419095 0.375089
v -0.322518 0.442741 0.374946
v -0.518497 0.377091 0.375677
v -0.521222 0.336377 0.376010
v -0.223283 0.316440 0.375870
v -0.220558 0.357153 0.375537
v -0.055046 -0.060024 -0.105374
v -0.088760 -0.021476 -0.105652
v 0.033874 -0.063291 -0.105438
v -0.016366 -0.073213 -0.105305
v 0.081163 0.012080 -0.106096
v 0.064636 -0.036388 -0.105686
v 0.039532 0.090718 -0.106692
v 0.073245 0.052171 -0.106413
v -0.049389 0.093986 -0.106629
v 0.000852 0.103908 -0.106759
v -0.096678 0.018614 -0.105969
v -0.080150 0.067084 -0.106380
v -0.088550 -0.019795 0.101634
v -0.054837 -0.058343 0.101913
v -0.016157 -0.071532 0.101981
v 0.034083 -0.061610 0.101850
v 0.064845 -0.034708 0.101601
v 0.081373 0.013761 0.101191
v 0.073455 0.053852 0.100873
v 0.039741 0.092399 0.100595
v 0.001062 0.105589 0.100526
v -0.049179 0.095666 0.100658
v -0.079941 0.068765 0.100907
v -0.096468 0.020295 0.101317
v -0.964242 0.834691 0.060624
v -0.942487 0.854078 0.110626
v -0.905517 0.886617 0.138798
v -0.862032 0.924645 0.138386
v -0.824873 0.956934 0.109288
v -0.803142 0.975575 0.058874
v -0.803111 0.975185 0.001246
v -0.824865 0.955799 -0.048757
v -0.861836 0.923260 -0.076928
v -0.905321 0.885232 -0.076516
v -0.942480 0.852944 -0.047417
v -0.964210 0.834303 0.002997
v -0.925787 0.834983 0.110764
v -0.947541 0.815595 0.060762
v -0.888620 0.866137 -0.076377
v -0.845135 0.904165 -0.076789
v -0.786441 0.956478 0.059012
v -0.808172 0.937838 0.109426
v -0.947509 0.815206 0.003134
v -0.925779 0.833848 -0.047280
v -0.808164 0.936703 -0.048618
v -0.786410 0.956090 0.001384
v -0.845331 0.905549 0.138524
v -0.888816 0.867521 0.138936
v -0.923798 0.870329 0.097478
v -0.946514 0.850085 0.045267
v -0.861058 0.925294 0.110257
v -0.906463 0.885586 0.110687
v -0.820854 0.959977 0.043902
v -0.843544 0.940511 0.096543
v -0.843554 0.939548 -0.035608
v -0.820839 0.959792 0.016603
v -0.906295 0.884584 -0.048386
v -0.860889 0.924292 -0.048816
v -0.946499 0.849901 0.017969
v -0.923808 0.869366 -0.034673
v -0.946479 0.849666 -0.016920
v -0.907166 0.850337 -0.034535
v -0.929856 0.830872 0.018106
v -0.804196 0.940763 0.016741
v -0.826912 0.920520 -0.035471
v -0.889821 0.866557 0.110824
v -0.844415 0.906265 0.110395
v -0.929871 0.831057 0.045404
v -0.907156 0.851301 0.097615
v -0.844247 0.905263 -0.048679
v -0.889652 0.865555 -0.048249
v -0.826902 0.921483 0.096680
v -0.804211 0.940948 0.044038
v -0.771194 0.657943 0.111901
v -0.898030 0.802966 0.110854
v -0.858886 0.837416 0.140536
v -0.732050 0.692391 0.141584
v -0.904038 0.797812 0.124758
v -0.777202 0.652789 0.125806
v -0.738058 0.687238 0.155488
v -0.864894 0.832262 0.154441
v -0.764080 0.664588 0.121490
v -0.895173 0.814480 0.120406
v -0.873253 0.833771 0.137029
v -0.742159 0.683879 0.138111
v -0.898538 0.811593 0.128193
v -0.767444 0.661701 0.129276
v -0.745524 0.680994 0.145898
v -0.876617 0.830885 0.144815
v -0.715042 0.829166 -0.048693
v -0.754186 0.794716 -0.078374
v -0.709034 0.834320 -0.062599
v -0.748178 0.799871 -0.092280
v -0.721178 0.824089 -0.056540
v -0.841059 0.961160 -0.057530
v -0.866111 0.939113 -0.076526
v -0.837215 0.964459 -0.066429
v -0.862266 0.942411 -0.085425
v -0.742385 0.805339 -0.084435
v -0.746230 0.802040 -0.075536
v -0.717332 0.827387 -0.065439
v -0.801195 0.732699 0.046935
v -0.791240 0.741570 0.069817
v -0.772519 0.758047 0.084083
v -0.752619 0.775449 0.083894
v -0.733810 0.791793 0.069165
v -0.723866 0.800324 0.046095
v -0.723850 0.800127 0.016936
v -0.733805 0.791255 -0.005945
v -0.752526 0.774779 -0.020211
v -0.772426 0.757376 -0.020022
v -0.791235 0.741032 -0.005294
v -0.801179 0.732501 0.017776
v -0.834426 0.790948 0.069460
v -0.844381 0.782077 0.046579
v -0.844365 0.781880 0.017420
v -0.834421 0.790410 -0.005651
v -0.815612 0.806754 -0.020379
v -0.795712 0.824157 -0.020567
v -0.776991 0.840633 -0.006302
v -0.767036 0.849504 0.016580
v -0.767052 0.849703 0.045738
v -0.776996 0.841171 0.068808
v -0.795805 0.824828 0.083537
v -0.815704 0.807424 0.083726
v -0.925787 0.834983 0.110764
v -0.947541 0.815595 0.060762
v -0.888620 0.866137 -0.076377
v -0.845135 0.904165 -0.076789
v -0.786441 0.956478 0.059012
v -0.808172 0.937838 0.109426
v -0.947509 0.815206 0.003134
v -0.925779 0.833848 -0.047280
v -0.808164 0.936703 -0.048618
v -0.786410 0.956090 0.001384
v -0.845331 0.905549 0.138524
v -0.888816 0.867521 0.138936
v -0.907166 0.850337 -0.034535
v -0.929856 0.830872 0.018106
v -0.804196 0.940763 0.016741
v -0.826912 0.920520 -0.035471
v -0.889821 0.866557 0.110824
v -0.844415 0.906265 0.110395
v -0.929871 0.831057 0.045404
v -0.907156 0.851301 0.097615
v -0.844247 0.905263 -0.048679
v -0.889652 0.865555 -0.048249
v -0.826902 0.921483 0.096680
v -0.804211 0.940948 0.044038
v -0.344663 0.209719 0.297855
v -0.415216 0.214439 0.297888
v -0.518577 0.376450 0.296680
v -0.521301 0.335737 0.297012
v -0.223363 0.315799 0.296872
v -0.220638 0.356513 0.296540
v -0.456633 0.430622 0.296178
v -0.406124 0.447689 0.295987
v -0.274812 0.418455 0.296091
v -0.322597 0.442101 0.295948
vn 0.0010 0.0081 1.0000
vn -0.7527 -0.6583 -0.0010
vn 0.6577 -0.7516 0.0495
vn 0.6576 -0.7523 -0.0386
vn -0.0110 -0.0250 -0.9996
vn -0.0120 -0.0268 -0.9996
vn -0.0015 -0.0076 -1.0000
vn 0.0002 0.0067 1.0000
vn 0.0003 0.0068 1.0000
vn 0.6583 -0.7527 0.0054
vn -0.0192 -0.9998 0.0081
vn -0.7527 -0.6583 0.0061
vn -0.6583 0.7527 -0.0054
vn -0.0010 -0.0081 -1.0000
vn 0.7527 0.6583 -0.0061
vn -0.7527 -0.6582 0.0132
vn 0.7527 0.6583 0.0010
vn 0.7527 0.6582 -0.0132
vn 0.0001 -0.0102 -0.9999
vn 0.0002 -0.0100 -1.0000
vn 0.0003 -0.0096 -1.0000
vn 0.0020 0.0056 1.0000
vn -0.1942 -0.1629 0.9673
vn -0.5327 -0.4607 0.7099
vn -0.5326 -0.4607 0.7099
vn 0.5343 0.4724 0.7009
vn 0.1977 0.1799 0.9636
vn 0.1977 0.1798 0.9636
vn 0.7272 0.6379 0.2534
vn 0.7272 0.6341 -0.2627
vn -0.7272 -0.6341 0.2627
vn -0.7273 -0.6379 -0.2534
vn 0.7273 0.6379 0.2534
vn -0.5344 -0.4724 -0.7009
vn -0.1976 -0.1799 -0.9636
vn -0.7272 -0.6379 -0.2534
vn 0.1943 0.1629 -0.9673
vn 0.5327 0.4607 -0.7099
vn 0.5344 0.4724 0.7009
vn -0.1977 -0.1799 -0.9636
vn -0.9978 0.0668 0.0005
vn 0.9978 -0.0668 -0.0005
vn 0.6098 0.7925 -0.0070
vn 0.2601 0.9655 -0.0081
vn 0.1942 0.1629 -0.9673
vn 0.5326 0.4607 -0.7099
vn -0.6583 0.7527 -0.0055
vn 0.6565 -0.7543 0.0032
vn 0.6566 -0.7542 0.0029
vn 0.6559 -0.7548 0.0045
vn 0.6558 -0.7549 0.0061
vn 0.6558 -0.7549 0.0048
vn 0.6559 -0.7548 0.0064
vn 0.6566 -0.7542 0.0080
vn 0.6565 -0.7543 0.0077
vn 0.6589 -0.7522 0.0086
vn 0.6578 -0.7532 0.0087
vn 0.6575 -0.7534 0.0087
vn 0.6578 -0.7532 0.0022
vn 0.6575 -0.7535 0.0022
vn 0.6592 -0.7520 0.0086
vn 0.6591 -0.7520 0.0022
vn 0.6607 -0.7506 0.0064
vn 0.6601 -0.7511 0.0076
vn 0.6600 -0.7512 0.0080
vn 0.6589 -0.7523 0.0023
vn 0.6601 -0.7511 0.0032
vn 0.6600 -0.7513 0.0029
vn 0.6609 -0.7505 0.0061
vn 0.6607 -0.7506 0.0044
vn 0.6609 -0.7505 0.0048
vn -0.4988 0.8667 -0.0065
vn -0.1292 0.9916 -0.0079
vn -0.0668 -0.9977 0.0082
vn -0.0488 -0.0935 -0.9944
vn -0.0026 0.0016 1.0000
vn -0.6583 0.7528 -0.0055
vn -0.6583 0.7527 -0.0048
vn -0.6584 0.7527 -0.0054
vn -0.0000 -0.0106 -0.9999
vn 0.0020 0.0058 1.0000
vn 0.0023 0.0066 1.0000
vn 0.0022 0.0061 1.0000
vn 0.8307 -0.5567 0.0037
vn 0.4411 -0.8974 0.0068
vn 0.8975 0.4410 -0.0045
vn 0.0668 0.9977 -0.0082
vn 0.5567 0.8307 -0.0073
vn -0.8307 0.5567 -0.0037
vn -0.4411 0.8974 -0.0068
vn -0.8975 -0.4410 0.0045
vn -0.5567 -0.8307 0.0073
vn -0.3755 -0.3221 0.8691
vn 0.6524 0.5741 0.4947
vn 0.6524 0.5742 0.4947
vn -0.1977 -0.1798 -0.9636
vn 0.3755 0.3221 -0.8690
vn -0.3755 -0.3221 0.8690
vn -0.6524 -0.5741 -0.4947
vn -0.6524 -0.5742 -0.4947
vn 0.6583 -0.7527 0.0055
vn 0.0010 0.0082 1.0000
vn 0.3755 0.3221 -0.8691
vn -0.4326 -0.3842 -0.8156
vn 0.4326 0.3842 0.8156
vn -0.6160 -0.5346 0.5785
vn -0.6160 -0.5346 0.5786
vn 0.6160 0.5346 -0.5786
vn 0.6524 0.5742 0.4946
vn -0.6524 -0.5741 -0.4948
vn -0.6584 0.7527 -0.0053
vn -0.6526 -0.5746 -0.4940
vn 0.6522 0.5740 0.4951
vn -0.6557 0.7550 -0.0064
vn -0.6557 0.7550 -0.0046
vn -0.6557 0.7550 -0.0063
vn -0.5343 -0.4724 -0.7009
vn -0.6564 0.7544 -0.0030
vn -0.6557 0.7550 -0.0045
vn -0.6565 0.7543 -0.0079
vn -0.6564 0.7544 -0.0079
vn -0.6609 0.7504 -0.0063
vn -0.6609 0.7505 -0.0064
vn -0.6602 0.7510 -0.0079
vn -0.6577 0.7533 -0.0020
vn -0.6602 0.7511 -0.0029
vn -0.6590 0.7521 -0.0021
vn -0.6590 0.7522 -0.0020
vn -0.6577 0.7533 -0.0088
vn -0.6576 0.7534 -0.0021
vn -0.6590 0.7521 -0.0088
vn -0.6576 0.7533 -0.0088
vn -0.6590 0.7521 -0.0089
vn -0.6602 0.7511 -0.0079
vn -0.6602 0.7511 -0.0030
vn -0.6609 0.7505 -0.0045
vt 0.818999 0.778579
vt 0.914116 0.629338
vt 0.914250 0.778493
vt 0.819558 0.776844
vt 0.797985 0.627646
vt 0.819560 0.626737
vt 0.914250 0.607743
vt 0.818864 0.629424
vt 0.818692 0.607829
vt 0.915119 0.626737
vt 0.819713 0.605144
vt 0.914965 0.605144
vt 0.891213 0.476628
vt 0.812319 0.505639
vt 0.812040 0.418794
vt 0.811243 0.242324
vt 0.890323 0.270676
vt 0.890586 0.328813
vt 0.949127 0.418229
vt 0.890991 0.418491
vt 0.987917 0.416256
vt 0.948723 0.328551
vt 0.987521 0.328509
vt 0.724791 0.329561
vt 0.672336 0.417680
vt 0.671940 0.329934
vt 0.811636 0.329170
vt 0.702434 0.776609
vt 0.702733 0.627455
vt 0.895523 0.477370
vt 0.939836 0.465060
vt 0.928300 0.509248
vt 0.797126 0.778598
vt 0.701562 0.778493
vt 0.680153 0.629259
vt 0.701730 0.628386
vt 0.680476 0.776565
vt 0.681162 0.626459
vt 0.797289 0.628491
vt 0.915121 0.776844
vt 0.626731 0.450373
vt 0.578989 0.473778
vt 0.578989 0.450373
vt 0.507357 0.230394
vt 0.494830 0.202378
vt 0.507357 0.202378
vt 0.517136 0.287214
vt 0.532565 0.270977
vt 0.532565 0.287214
vt 0.517136 0.217712
vt 0.532565 0.234161
vt 0.517136 0.234161
vt 0.517136 0.180764
vt 0.532565 0.164103
vt 0.532565 0.180764
vt 0.507357 0.173801
vt 0.494830 0.145344
vt 0.507357 0.145344
vt 0.507357 0.344240
vt 0.494830 0.315784
vt 0.507357 0.315784
vt 0.507357 0.116716
vt 0.494830 0.088480
vt 0.507357 0.088480
vt 0.517136 0.004110
vt 0.532565 0.020771
vt 0.517136 0.020771
vt 0.507357 0.059955
vt 0.494830 0.031939
vt 0.507357 0.031939
vt 0.507357 0.287155
vt 0.494830 0.258919
vt 0.507357 0.258919
vt 0.517136 0.057719
vt 0.532565 0.074168
vt 0.517136 0.074168
vt 0.638821 0.473778
vt 0.638821 0.450373
vt 0.756065 0.473778
vt 0.743975 0.450373
vt 0.756065 0.450373
vt 0.719595 0.473778
vt 0.703799 0.450373
vt 0.719595 0.450373
vt 0.494830 0.287155
vt 0.494830 0.116716
vt 0.507357 0.003361
vt 0.494830 0.003361
vt 0.494830 0.230394
vt 0.517136 0.110984
vt 0.532565 0.127221
vt 0.517136 0.127221
vt 0.532565 0.217712
vt 0.532565 0.324096
vt 0.532565 0.110984
vt 0.517136 0.164103
vt 0.517136 0.270977
vt 0.532565 0.057719
vt 0.489613 0.131072
vt 0.829839 0.948499
vt 0.844705 0.974433
vt 0.818216 0.955939
vt 0.829839 0.935019
vt 0.912270 0.918134
vt 0.912270 0.935361
vt 0.897404 0.909427
vt 0.923894 0.956377
vt 0.909606 0.981126
vt 0.897350 0.974683
vt 0.909657 0.983020
vt 0.897404 0.976677
vt 0.923894 0.958183
vt 0.912270 0.937263
vt 0.912270 0.950743
vt 0.923894 0.929727
vt 0.897351 0.911421
vt 0.909606 0.904978
vt 0.856818 0.891058
vt 0.885343 0.890970
vt 0.885975 0.904853
vt 0.885292 0.997290
vt 0.885921 0.983402
vt 0.818216 0.927483
vt 0.844759 0.909178
vt 0.856189 0.904945
vt 0.856135 0.983495
vt 0.818216 0.930165
vt 0.832453 0.905328
vt 0.844706 0.911671
vt 0.856767 0.997378
vt 0.832504 0.983370
vt 0.844759 0.976927
vt 0.829840 0.937605
vt 0.818216 0.958621
vt 0.829840 0.951085
vt 0.885292 0.888814
vt 0.885921 0.902702
vt 0.856135 0.902609
vt 0.856766 0.888726
vt 0.832504 0.902734
vt 0.856189 0.981159
vt 0.832453 0.980776
vt 0.885974 0.981251
vt 0.856818 0.995046
vt 0.885343 0.995134
vt 0.909657 0.903084
vt 0.912270 0.948841
vt 0.923894 0.927921
vt 0.663201 0.450373
vt 0.663201 0.473778
vt 0.678997 0.473778
vt 0.743975 0.473778
vt 0.558039 0.473778
vt 0.678997 0.450373
vt 0.703799 0.473778
vt 0.803807 0.450373
vt 0.803807 0.473778
vt 0.797685 0.776800
vt 0.865200 0.505469
vt 0.864095 0.242086
vt 0.725195 0.419186
vt 0.913902 0.509248
vt 0.902576 0.502709
vt 0.895483 0.490423
vt 0.902746 0.465036
vt 0.914112 0.458521
vt 0.928510 0.458521
vt 0.946929 0.477346
vt 0.946889 0.490400
vt 0.939666 0.502733
vt 0.679605 0.778412
vt 0.626731 0.473778
vt 0.494830 0.173801
vt 0.494830 0.344240
vt 0.532565 0.004110
vt 0.494830 0.059955
vt 0.517136 0.324096
vt 0.558039 0.450373
vt 0.929180 0.609372
vt 0.990595 0.621480
vt 0.929180 0.621480
vt 0.929181 0.745772
vt 0.990595 0.757879
vt 0.929181 0.757879
vt 0.929181 0.718492
vt 0.990595 0.730599
vt 0.929181 0.730599
vt 0.929181 0.691212
vt 0.990595 0.703319
vt 0.929181 0.703319
vt 0.929181 0.676040
vt 0.990595 0.663932
vt 0.990595 0.676040
vt 0.929180 0.648760
vt 0.990595 0.636652
vt 0.990595 0.648760
vt 0.908920 0.552420
vt 0.991114 0.582047
vt 0.908920 0.582047
vt 0.908920 0.589947
vt 0.582489 0.317517
vt 0.562160 0.244308
vt 0.582489 0.244308
vt 0.716648 0.317517
vt 0.696319 0.244308
vt 0.716648 0.244308
vt 0.671754 0.317517
vt 0.651774 0.244308
vt 0.671754 0.244308
vt 0.627253 0.317517
vt 0.607098 0.244308
vt 0.627253 0.244308
vt 0.805912 0.317517
vt 0.785932 0.244308
vt 0.805912 0.244308
vt 0.761412 0.317517
vt 0.741257 0.244308
vt 0.761411 0.244308
vt 0.608687 0.822261
vt 0.616587 0.851888
vt 0.608687 0.851888
vt 0.592237 0.963953
vt 0.628612 0.993580
vt 0.592237 0.993580
vt 0.652963 0.889415
vt 0.616587 0.859788
vt 0.652963 0.859788
vt 0.628612 0.918525
vt 0.592237 0.926426
vt 0.592237 0.918525
vt 0.616587 0.897316
vt 0.652963 0.897316
vt 0.803807 0.426967
vt 0.678997 0.426967
vt 0.578989 0.426967
vt 0.719595 0.426967
vt 0.743975 0.426967
vt 0.562160 0.317517
vt 0.537595 0.244308
vt 0.785932 0.317517
vt 0.741257 0.317517
vt 0.696319 0.317517
vt 0.651774 0.317517
vt 0.607098 0.317517
vt 0.695109 0.917171
vt 0.675457 0.894803
vt 0.700162 0.894726
vt 0.649450 0.981720
vt 0.637244 0.960729
vt 0.659301 0.953721
vt 0.680403 0.974121
vt 0.700055 0.996489
vt 0.675350 0.996566
vt 0.726062 0.909572
vt 0.708967 0.925115
vt 0.882102 0.885206
vt 0.836291 0.810139
vt 0.903840 0.799880
vt 0.663201 0.426967
vt 0.929181 0.663932
vt 0.990595 0.594200
vt 0.929180 0.594200
vt 0.929180 0.636652
vt 0.628612 0.956053
vt 0.628612 0.963953
vt 0.652963 0.851888
vt 0.628612 0.926426
vt 0.616587 0.822261
vt 0.660863 0.822261
vt 0.652963 0.822261
vt 0.991114 0.544519
vt 0.991114 0.552420
vt 0.908920 0.514892
vt 0.991114 0.514892
vt 0.901020 0.544519
vt 0.908920 0.544519
vt 0.680462 0.917217
vt 0.666605 0.925217
vt 0.695049 0.974075
vt 0.708907 0.966075
vt 0.649557 0.909756
vt 0.659301 0.937777
vt 0.738268 0.930563
vt 0.716210 0.937571
vt 0.637244 0.930930
vt 0.738268 0.960362
vt 0.716210 0.953515
vt 0.725955 0.981536
vt 0.666545 0.966177
vt 0.584336 0.963953
vt 0.584336 0.993580
vt 0.703799 0.426967
vt 0.756065 0.426967
vt 0.626731 0.426967
vt 0.638821 0.426967
vt 0.990595 0.609372
vt 0.990595 0.745772
vt 0.990595 0.718492
vt 0.990595 0.691212
vt 0.991114 0.589947
vt 0.616587 0.889415
vt 0.558039 0.426967
vt 0.537595 0.317517
vt 0.921617 0.817656
vt 0.921617 0.874948
vt 0.911358 0.885206
vt 0.864589 0.877952
vt 0.843545 0.856907
vt 0.836291 0.839395
vt 0.846549 0.799880
vt 0.592237 0.956053
vt 0.660863 0.851888
vt 0.901020 0.514892
vt 0.694918 0.553132
vt 0.687018 0.523505
vt 0.694918 0.523505
vt 0.694918 0.561032
vt 0.813426 0.590659
vt 0.694918 0.590659
vt 0.813426 0.553132
vt 0.813426 0.523505
vt 0.694918 0.598560
vt 0.813426 0.561032
vt 0.687018 0.501767
vt 0.785346 0.497342
vt 0.785346 0.501767
vt 0.785346 0.518358
vt 0.687018 0.522782
vt 0.687018 0.518358
vt 0.687018 0.480751
vt 0.785346 0.480751
vt 0.583686 0.914547
vt 0.598318 0.898963
vt 0.603200 0.901804
vt 0.574761 0.816516
vt 0.555477 0.907992
vt 0.555471 0.816517
vt 0.579910 0.907991
vt 0.579904 0.816516
vt 0.599193 0.816516
vt 0.687018 0.553132
vt 0.813426 0.598560
vt 0.687018 0.497342
vt 0.785346 0.522782
vt 0.574767 0.907991
vt 0.603987 0.816560
vt 0.611886 0.352316
vt 0.599433 0.416633
vt 0.599433 0.352316
vt 0.559724 0.352316
vt 0.547170 0.416633
vt 0.547170 0.352316
vt 0.664198 0.352316
vt 0.651846 0.416633
vt 0.651846 0.352316
vt 0.533454 0.352316
vt 0.521001 0.416633
vt 0.521001 0.352316
vt 0.638155 0.352316
vt 0.625601 0.416633
vt 0.625601 0.352316
vt 0.994395 0.872300
vt 0.962003 0.858007
vt 0.994395 0.858007
vt 0.994395 0.817689
vt 0.962003 0.803291
vt 0.994395 0.803291
vt 0.994395 0.790191
vt 0.962003 0.775898
vt 0.994395 0.775898
vt 0.994395 0.899799
vt 0.962003 0.885401
vt 0.994395 0.885401
vt 0.796537 0.803056
vt 0.780657 0.789351
vt 0.799488 0.789292
vt 0.994395 0.912876
vt 0.962003 0.927063
vt 0.962003 0.912876
vt 0.533454 0.416633
vt 0.638155 0.416633
vt 0.585766 0.352316
vt 0.585766 0.416633
vt 0.573415 0.416633
vt 0.573415 0.352316
vt 0.507335 0.352316
vt 0.611886 0.416633
vt 0.962003 0.830767
vt 0.994395 0.830767
vt 0.994395 0.762844
vt 0.962003 0.872300
vt 0.962003 0.790191
vt 0.962003 0.899799
vt 0.962003 0.844954
vt 0.773368 0.808991
vt 0.762840 0.799637
vt 0.783579 0.803096
vt 0.817305 0.799505
vt 0.806748 0.808909
vt 0.799412 0.862455
vt 0.796489 0.848710
vt 0.806700 0.842815
vt 0.766902 0.820111
vt 0.762763 0.852300
vt 0.753450 0.836284
vt 0.766902 0.831859
vt 0.813167 0.819946
vt 0.753450 0.815785
vt 0.826619 0.836021
vt 0.826619 0.815521
vt 0.813167 0.831695
vt 0.817229 0.852168
vt 0.773320 0.842897
vt 0.780580 0.862513
vt 0.783531 0.848750
vt 0.559724 0.416633
vt 0.664198 0.416633
vt 0.962003 0.817689
vt 0.994395 0.927063
vt 0.507335 0.416633
vt 0.962003 0.762844
vt 0.994395 0.844954
s 1
g off
g RoverModificado.005_SpacialRoverExploreralumWhite
usemtl SpacialRoverExploreralumWhite
f 31/1/1 3/2/1 36/3/1
s 2
f 34/4/2 2/5/2 5/6/2
s 3
f 8/7/3 4/8/3 6/9/3
s 4
f 7/10/4 2/11/4 1/12/4
s 5
f 11/13/5 17/14/6 16/15/7
s 6
f 18/16/8 14/17/9 10/18/1
s 7
f 10/18/10 11/19/10 9/20/10
s 8
f 12/21/11 14/22/11 13/23/11
s 9
f 18/24/12 12/25/12 13/26/12
s 10
f 16/15/13 18/24/13 15/27/13
s 11
f 2/5/14 37/28/14 1/29/14
s 12
f 219/30/13 223/31/13 227/32/13
s 13
f 10/18/15 16/15/15 15/27/15
s 14
f 32/33/16 4/8/16 31/1/16
s 15
f 35/34/17 3/35/17 8/36/17
s 16
f 1/29/18 38/37/18 7/38/18
s 17
f 32/33/19 8/36/20 6/39/21
s 18
f 34/4/22 7/10/22 38/40/22
s 19
f 267/41/12 42/42/12 265/43/12
s 20
f 162/44/23 140/45/24 151/46/24
s 21
f 169/47/25 184/48/23 179/49/25
f 174/50/26 185/51/27 171/52/28
f 173/53/29 182/54/30 177/55/29
s 20
f 152/56/31 150/57/32 157/58/32
f 160/59/30 144/60/33 155/61/33
f 158/62/34 148/63/35 153/64/35
s 21
f 170/65/31 187/66/36 167/67/36
s 20
f 154/68/37 146/69/38 159/70/38
f 156/71/39 142/72/28 161/73/28
s 21
f 168/74/34 181/75/40 165/76/40
s 22
f 100/77/41 267/41/41 266/78/41
s 23
f 102/79/42 269/80/42 268/81/42
s 24
f 106/82/43 273/83/44 272/84/43
s 20
f 140/45/24 152/56/31 151/46/24
f 148/63/35 154/68/37 153/64/35
f 155/61/33 143/85/39 156/71/39
f 158/62/34 150/57/32 149/86/34
f 160/87/30 146/69/38 145/88/30
f 162/44/23 142/72/28 141/89/23
s 21
f 166/90/45 183/91/46 163/92/46
f 174/50/26 177/55/29 176/93/39
f 178/94/31 169/47/25 179/49/25
f 180/95/45 165/76/40 181/75/40
f 183/91/46 164/96/30 163/92/46
f 185/51/27 172/97/23 171/52/28
f 167/67/36 186/98/34 168/74/34
s 25
f 150/57/13 175/99/13 149/86/13
f 167/100/13 168/101/47 144/102/13
f 170/103/13 167/100/13 144/102/13
f 175/104/13 173/105/13 174/106/13
f 139/107/13 140/108/13 163/109/13
s 26
f 245/110/48 262/111/49 244/112/50
f 254/113/51 244/112/50 263/114/52
f 249/115/53 254/113/51 255/116/54
f 244/112/50 254/113/51 249/115/53
f 248/117/55 249/115/53 255/116/54
f 242/118/56 243/119/57 260/120/58
f 255/116/54 260/120/58 248/117/55
f 250/121/59 257/122/60 245/110/48
s 25
f 170/103/13 145/123/13 169/124/13
s 26
f 262/111/49 263/114/52 244/112/50
f 261/125/61 242/118/56 260/120/58
f 256/126/62 257/122/60 250/121/59
f 246/127/63 247/128/64 252/129/65
f 256/126/62 250/121/59 251/130/66
f 247/128/64 242/118/56 261/125/61
f 256/126/62 251/130/66 240/131/67
f 247/128/64 261/125/61 252/129/65
f 259/132/68 256/126/62 240/131/67
f 253/133/69 246/127/63 252/129/65
f 240/131/67 241/134/70 259/132/68
f 260/120/58 243/119/57 248/117/55
f 257/122/60 262/111/49 245/110/48
f 246/127/63 253/133/69 258/135/71
f 246/127/63 258/135/71 241/134/70
f 241/134/70 258/135/71 259/132/68
s 25
f 148/136/13 171/137/13 172/138/13
f 147/139/47 172/138/13 146/140/13
f 168/101/47 165/141/13 143/142/47
f 168/101/47 143/142/47 144/102/13
f 147/139/47 148/136/13 172/138/13
f 166/143/13 142/144/13 165/141/13
f 172/138/13 169/124/13 146/140/13
f 166/143/13 141/145/13 142/144/13
f 149/146/13 171/137/13 148/136/13
f 166/143/13 140/108/13 141/145/13
f 149/146/13 174/106/13 171/137/13
f 163/109/13 140/108/13 166/143/13
f 149/146/13 175/104/13 174/106/13
f 164/147/13 139/107/13 163/109/13
f 145/123/13 146/140/13 169/124/13
f 165/141/13 142/144/13 143/142/47
f 150/148/13 173/105/13 175/104/13
f 150/148/13 164/147/13 173/105/13
f 150/148/13 139/107/13 164/147/13
f 170/103/13 144/102/13 145/123/13
s 24
f 100/77/13 270/149/72 103/150/72
f 270/149/72 104/151/73 103/150/72
f 101/152/15 272/84/43 269/80/15
s 27
f 41/153/74 265/43/74 42/42/74
s 24
f 271/154/73 105/155/44 104/151/73
s 28
f 102/79/10 264/156/10 41/157/10
s 29
f 31/1/1 4/8/1 3/2/1
s 2
f 34/4/2 33/158/2 2/5/2
s 3
f 8/7/3 3/2/3 4/8/3
s 4
f 7/10/4 5/6/4 2/11/4
s 5
f 16/15/7 9/20/7 11/13/5
f 11/13/5 12/159/75 17/14/6
s 6
f 10/18/1 15/27/1 18/16/8
f 18/16/8 13/160/76 14/17/9
s 7
f 10/18/10 14/22/10 11/19/10
s 8
f 12/21/11 11/19/11 14/22/11
s 9
f 18/24/12 17/161/12 12/25/12
s 10
f 16/15/13 17/161/13 18/24/13
s 30
f 2/5/14 33/158/14 37/28/14
s 12
f 227/32/13 216/162/77 217/163/47
f 217/163/47 218/164/78 219/30/13
f 219/30/13 220/165/13 221/166/13
f 221/166/13 222/167/79 223/31/13
f 223/31/13 224/168/13 225/169/13
f 225/169/13 226/170/13 227/32/13
f 227/32/13 217/163/47 219/30/13
f 219/30/13 221/166/13 223/31/13
f 223/31/13 225/169/13 227/32/13
s 13
f 10/18/15 9/20/15 16/15/15
s 31
f 32/33/16 6/39/16 4/8/16
s 15
f 35/34/17 36/171/17 3/35/17
s 32
f 1/29/18 37/28/18 38/37/18
s 17
f 32/33/19 35/34/80 8/36/20
s 33
f 34/4/81 5/6/82 7/10/83
s 34
f 267/41/12 99/172/12 42/42/12
s 20
f 162/44/23 141/89/23 140/45/24
s 21
f 169/47/25 172/97/23 184/48/23
f 174/50/26 176/93/39 185/51/27
f 173/53/29 164/96/30 182/54/30
s 20
f 152/56/31 139/173/31 150/57/32
f 160/59/30 145/174/30 144/60/33
f 158/62/34 149/86/34 148/63/35
s 21
f 170/65/31 178/175/31 187/66/36
s 20
f 154/68/37 147/176/37 146/69/38
f 156/71/39 143/85/39 142/72/28
s 21
f 168/74/34 186/98/34 181/75/40
s 22
f 100/77/41 99/172/41 267/41/41
s 23
f 102/79/42 101/152/42 269/80/42
s 24
f 106/82/43 105/155/44 273/83/44
s 20
f 140/45/24 139/173/31 152/56/31
f 148/63/35 147/176/37 154/68/37
f 155/61/33 144/60/33 143/85/39
f 158/62/34 157/58/32 150/57/32
f 160/87/30 159/70/38 146/69/38
f 162/44/23 161/73/28 142/72/28
s 21
f 166/90/45 180/95/45 183/91/46
f 174/50/26 173/53/29 177/55/29
f 178/94/31 170/177/31 169/47/25
f 180/95/45 166/90/45 165/76/40
f 183/91/46 182/54/30 164/96/30
f 185/51/27 184/48/23 172/97/23
f 167/67/36 187/66/36 186/98/34
s 24
f 100/77/13 266/78/13 270/149/72
f 270/149/72 271/154/73 104/151/73
f 101/152/15 106/82/43 272/84/43
s 35
f 41/153/74 264/178/74 265/43/74
s 24
f 271/154/73 273/83/44 105/155/44
s 36
f 102/79/10 268/81/10 264/156/10
s 37
g RoverModificado.005_SpacialRoverExploreralumGray
usemtl SpacialRoverExploreralumGray
f 120/179/84 130/180/85 117/181/85
f 122/182/86 132/183/42 119/184/42
f 124/185/87 134/186/88 121/187/88
f 126/188/89 136/189/90 123/190/90
f 125/191/41 127/192/91 138/193/41
f 115/194/92 129/195/74 128/196/92
s 38
f 205/197/93 21/198/93 204/199/93
s 39
f 21/198/94 206/200/95 204/199/95
s 40
f 61/201/32 63/202/31 74/203/32
f 55/204/33 69/205/30 68/206/29
f 57/207/38 71/208/45 70/209/38
f 59/210/96 73/211/34 72/212/40
f 51/213/24 65/214/23 64/215/24
f 53/216/28 67/217/39 66/218/27
s 41
f 25/219/47 24/220/47 26/221/47
s 42
f 191/222/97 29/223/97 188/224/97
s 43
f 195/225/98 26/226/98 192/227/98
s 44
f 29/228/99 193/229/99 188/230/99
s 45
f 23/231/95 195/225/95 190/232/95
s 36
f 268/81/10 49/233/10 264/156/10
s 24
f 107/234/73 273/83/44 271/154/73
s 35
f 264/178/74 50/235/74 265/43/74
s 24
f 269/80/15 109/236/43 114/237/15
s 40
f 52/238/31 64/239/24 63/202/31
f 66/218/27 54/240/23 53/216/28
f 68/206/29 56/241/26 55/204/33
f 70/209/38 58/242/30 57/207/38
f 72/212/40 60/243/45 59/210/96
f 74/203/32 62/244/34 61/201/32
s 46
f 82/245/13 68/246/13 69/247/13
f 64/248/13 65/249/13 78/250/13
f 76/251/13 74/252/13 63/253/13
f 70/254/13 81/255/13 69/247/13
s 47
f 109/256/1 111/257/1 50/258/1
s 24
f 108/259/72 271/154/73 270/149/72
f 266/78/13 108/259/72 270/149/72
s 37
f 134/186/88 122/182/86 121/187/88
f 128/196/92 116/260/91 115/194/92
f 132/261/42 120/179/84 119/262/42
f 136/189/90 124/185/87 123/190/90
f 138/193/41 126/188/89 125/191/41
f 117/181/85 129/195/74 118/263/74
s 48
f 191/222/95 28/264/95 30/265/95
s 49
f 189/266/100 26/226/100 24/220/100
s 50
f 28/264/98 193/229/98 27/267/98
s 51
f 23/268/97 189/266/97 24/220/97
s 52
f 195/269/101 189/266/10 190/270/101
s 53
f 205/197/99 20/271/100 22/272/100
s 54
f 20/271/97 206/273/97 19/274/97
s 55
f 205/275/13 206/273/13 207/276/13
s 46
f 79/277/13 80/278/13 68/246/13
f 74/252/13 85/279/13 86/280/13
f 67/281/13 80/278/13 77/282/13
f 70/254/13 71/283/13 84/284/13
f 81/255/13 70/254/13 84/284/13
f 66/285/13 67/281/13 77/282/13
f 72/286/13 84/284/13 71/283/13
f 77/282/13 78/250/13 66/285/13
f 72/286/13 83/287/13 84/284/13
f 72/286/13 73/288/13 83/287/13
f 75/289/13 64/248/13 78/250/13
f 63/253/13 64/248/13 75/289/13
f 80/278/13 67/281/13 68/246/13
f 73/288/13 74/252/13 86/280/13
f 76/251/13 63/253/13 75/289/13
f 78/250/13 65/249/13 66/285/13
f 73/288/13 86/280/13 83/287/13
f 74/252/13 76/251/13 85/279/13
f 81/255/13 82/245/13 69/247/13
f 68/246/13 82/245/13 79/277/13
s 56
f 194/290/47 188/224/47 193/291/47
s 24
f 272/84/43 110/292/44 109/236/43
s 23
f 268/81/42 114/237/42 113/293/42
s 22
f 266/78/41 112/294/41 111/295/41
s 19
f 112/294/12 265/43/12 50/235/12
s 37
f 120/179/84 131/296/84 130/180/85
f 122/182/86 133/297/86 132/183/42
f 124/185/87 135/298/87 134/186/88
f 126/188/89 137/299/89 136/189/90
f 125/191/41 116/260/91 127/192/91
f 115/194/92 118/263/74 129/195/74
s 57
f 205/197/98 22/272/98 21/198/98
s 39
f 21/198/94 19/300/94 206/200/95
s 40
f 61/201/32 52/238/31 63/202/31
f 55/204/33 58/242/30 69/205/30
f 57/207/38 60/243/45 71/208/45
f 59/210/96 62/244/34 73/211/34
f 51/213/24 54/240/23 65/214/23
f 53/216/28 56/241/26 67/217/39
s 41
f 25/219/47 23/268/47 24/220/47
s 58
f 191/222/97 30/265/97 29/223/97
s 43
f 195/225/98 25/301/93 26/226/98
s 44
f 29/228/99 27/267/99 193/229/99
s 45
f 23/231/95 25/301/95 195/225/95
s 36
f 268/81/10 113/293/10 49/233/10
s 24
f 107/234/73 110/292/44 273/83/44
s 35
f 264/178/74 49/302/74 50/235/74
s 24
f 269/80/15 272/84/43 109/236/43
s 40
f 52/238/31 51/303/24 64/239/24
f 66/218/27 65/214/23 54/240/23
f 68/206/29 67/217/39 56/241/26
f 70/209/38 69/205/30 58/242/30
f 72/212/40 71/208/45 60/243/45
f 74/203/32 73/211/34 62/244/34
s 47
f 50/258/1 49/304/1 113/305/1
f 113/305/1 114/306/1 109/256/1
f 109/256/1 110/307/1 107/308/1
f 107/308/1 108/309/102 111/257/1
f 111/257/1 112/310/1 50/258/1
f 50/258/1 113/305/1 109/256/1
f 109/256/1 107/308/1 111/257/1
s 24
f 108/259/72 107/234/73 271/154/73
f 266/78/13 111/295/13 108/259/72
s 37
f 134/186/88 133/297/86 122/182/86
f 128/196/92 127/192/91 116/260/91
f 132/261/42 131/296/84 120/179/84
f 136/189/90 135/298/87 124/185/87
f 138/193/41 137/299/89 126/188/89
f 117/181/85 130/180/85 129/195/74
s 48
f 191/222/95 194/311/95 28/264/95
s 49
f 189/266/100 192/227/99 26/226/100
s 59
f 28/264/98 194/311/98 193/229/98
s 51
f 23/268/97 190/270/97 189/266/97
s 52
f 195/269/101 192/312/10 189/266/10
s 53
f 205/197/99 207/276/99 20/271/100
s 60
f 20/271/103 207/276/103 206/273/103
s 55
f 205/275/13 204/313/47 206/273/13
s 56
f 194/290/47 191/222/47 188/224/47
s 24
f 272/84/43 273/83/44 110/292/44
s 23
f 268/81/42 269/80/42 114/237/42
s 22
f 266/78/41 267/41/41 112/294/41
s 19
f 112/294/12 267/41/12 265/43/12
s 61
g RoverModificado.005_SpacialRoverExploreralumBlack
usemtl SpacialRoverExploreralumBlack
f 43/314/13 39/315/13 44/316/13
s 62
f 40/317/104 47/318/104 39/319/104
s 63
f 46/320/105 44/316/105 45/321/105
s 64
f 47/318/106 44/322/107 39/319/107
s 65
f 40/317/108 46/320/108 48/323/108
s 66
f 198/324/109 202/325/95 199/326/95
s 67
f 196/327/110 200/328/99 197/329/99
s 68
f 202/325/98 200/330/98 201/331/98
s 69
f 197/329/97 199/326/103 196/327/103
s 70
f 212/332/13 209/333/79 211/334/111
s 71
f 213/335/97 211/336/97 215/337/97
s 72
f 210/338/100 213/335/100 214/339/100
s 73
f 208/340/95 211/334/95 209/333/95
s 74
f 210/338/93 208/340/93 209/333/93
s 61
f 43/314/13 40/341/13 39/315/13
s 75
f 40/317/104 48/323/104 47/318/104
s 76
f 46/320/105 43/314/105 44/316/105
s 64
f 47/318/106 45/342/106 44/322/107
s 65
f 40/317/108 43/314/108 46/320/108
s 66
f 198/324/109 203/343/109 202/325/95
s 67
f 196/327/110 201/344/110 200/328/99
s 77
f 202/325/93 203/343/93 200/330/93
s 69
f 197/329/97 198/324/97 199/326/103
s 70
f 212/332/13 210/338/13 209/333/79
s 78
f 213/335/97 212/345/97 211/336/97
s 72
f 210/338/100 212/345/112 213/335/100
s 73
f 208/340/95 215/346/113 211/334/95
s 79
f 210/338/93 214/339/93 208/340/93
s 80
g RoverModificado.005_SpacialRoverExploreralumOrange
usemtl SpacialRoverExploreralumOrange
f 80/347/39 98/348/27 77/349/28
f 76/350/31 90/351/32 85/352/36
f 84/353/45 94/354/38 81/355/38
f 86/356/34 92/357/40 83/358/96
f 82/359/30 96/360/29 79/361/33
s 81
f 237/362/34 219/363/40 238/364/40
f 229/365/30 227/366/29 230/367/33
f 231/368/39 225/369/27 232/370/28
f 235/371/31 221/372/36 236/373/32
s 82
f 235/374/114 96/375/115 93/376/116
s 81
f 234/377/24 224/378/23 223/379/24
s 80
f 86/356/34 90/351/32 89/380/34
f 82/359/30 94/354/38 93/381/30
f 78/382/23 98/348/27 97/383/23
f 88/384/24 76/350/31 75/385/24
f 92/357/40 84/386/45 83/358/96
f 79/361/33 95/387/39 80/347/39
f 78/382/23 88/384/24 75/385/24
s 81
f 217/388/38 229/365/30 228/389/38
f 225/369/27 233/390/23 232/370/28
f 236/373/32 220/391/117 237/362/34
f 231/368/39 227/366/29 226/392/26
f 235/371/31 223/379/24 222/393/31
f 218/394/45 238/364/40 219/363/40
f 228/389/38 218/394/45 217/388/38
s 82
f 237/395/118 95/396/118 96/375/115
f 96/375/115 235/374/114 236/397/119
f 94/398/120 234/399/121 93/376/116
f 236/397/119 237/395/118 96/375/115
f 90/400/122 230/401/123 231/402/124
f 95/396/118 237/395/118 238/403/125
f 88/404/126 97/405/127 239/406/128
f 234/399/121 94/398/120 233/407/129
f 98/408/130 95/396/118 238/403/125
f 92/409/131 233/407/129 91/410/132
f 238/403/125 239/406/128 98/408/130
f 92/409/131 232/411/133 233/407/129
f 92/409/131 89/412/134 232/411/133
f 228/413/135 88/404/126 239/406/128
f 87/414/136 88/404/126 228/413/135
f 94/398/120 91/410/132 233/407/129
f 89/412/134 90/400/122 231/402/124
f 229/415/136 87/414/136 228/413/135
f 239/406/128 97/405/127 98/408/130
f 89/412/134 231/402/124 232/411/133
f 229/415/136 90/400/122 87/414/136
f 234/399/121 235/374/114 93/376/116
f 90/400/122 229/415/136 230/401/123
s 80
f 80/347/39 95/387/39 98/348/27
f 76/350/31 87/416/31 90/351/32
f 84/353/45 91/417/45 94/354/38
f 86/356/34 89/380/34 92/357/40
f 82/359/30 93/381/30 96/360/29
s 81
f 237/362/34 220/391/117 219/363/40
f 229/365/30 216/418/30 227/366/29
f 231/368/39 226/392/26 225/369/27
f 235/371/31 222/393/31 221/372/36
f 234/377/24 233/419/23 224/378/23
s 80
f 86/356/34 85/352/36 90/351/32
f 82/359/30 81/355/38 94/354/38
f 78/382/23 77/349/28 98/348/27
f 88/384/24 87/416/31 76/350/31
f 92/357/40 91/420/45 84/386/45
f 79/361/33 96/360/29 95/387/39
f 78/382/23 97/383/23 88/384/24
s 81
f 217/388/38 216/418/30 229/365/30
f 225/369/27 224/421/23 233/390/23
f 236/373/32 221/372/36 220/391/117
f 231/368/39 230/367/33 227/366/29
f 235/371/31 234/377/24 223/379/24
f 218/394/45 239/422/45 238/364/40
f 228/389/38 239/422/45 218/394/45
