# Blender 5.2.0 LTS
# www.blender.org
mtllib brazodos.mtl
g RoverModificado.004_RoverModificado.004
v -0.050032 0.476926 -0.414041
v -0.050032 0.510467 0.225959
v 0.156335 0.460089 -0.413159
v 0.156335 0.493630 0.226842
v 0.398345 -0.050514 -0.386400
v 0.398346 -0.016973 0.253601
v 0.280560 -0.220569 -0.377487
v 0.280560 -0.187028 0.262513
v 0.093410 -0.309031 -0.372851
v 0.093410 -0.275490 0.267149
v -0.112957 -0.292192 -0.373734
v -0.112957 -0.258651 0.266267
v -0.283246 -0.174568 -0.379898
v -0.283246 -0.141027 0.260103
v -0.371828 0.012325 -0.389693
v -0.371828 0.045866 0.250308
v -0.354968 0.218409 -0.400493
v -0.354968 0.251950 0.239507
v -0.237182 0.388466 -0.409405
v -0.237182 0.422007 0.230594
v -0.059867 -0.055625 -0.386132
v -0.059867 -0.022084 0.253869
v 0.037738 -0.120148 -0.382750
v 0.037738 -0.086607 0.257250
v -0.125319 0.041288 -0.391211
v -0.125319 0.074829 0.248790
v -0.148650 0.155836 -0.397214
v -0.148650 0.189377 0.242787
v 0.152640 -0.142458 -0.381581
v 0.152640 -0.108917 0.258420
v -0.126309 0.270581 -0.403227
v -0.126309 0.304122 0.236773
v 0.267347 -0.085617 0.257198
v 0.267347 -0.119158 -0.382802
v 0.364392 -0.053798 -0.386227
v 0.364392 -0.020257 0.253772
v -0.061698 0.368054 -0.408336
v -0.061697 0.401595 0.231665
v 0.035348 0.466956 0.228239
v 0.035348 0.433415 -0.411761
v 0.150054 0.456713 -0.412982
v 0.150054 0.490255 0.227018
v -0.368851 0.039584 0.250637
v -0.367076 0.035838 0.250833
v -2.158415 2.690417 -0.272455
v -2.091328 2.759578 -0.268403
v -2.093440 2.758402 -0.213361
v -2.141884 2.708710 -0.202567
v -2.184004 2.665999 -0.166038
v -2.213386 2.636772 -0.109336
v -2.225558 2.625477 -0.041096
v -2.218667 2.633833 0.028297
v -2.193761 2.660570 0.088276
v -2.154633 2.701617 0.129709
v -2.107239 2.750724 0.146291
v -2.058795 2.800415 0.135497
v -2.016676 2.843126 0.098967
v -1.987293 2.872353 0.042266
v -1.975121 2.883648 -0.025974
v -1.982013 2.875291 -0.095367
v -2.006918 2.848556 -0.155346
v -2.046047 2.807508 -0.196781
v -2.215288 2.631788 -0.275888
v -2.258604 2.589655 -0.139656
v -2.275645 2.573841 -0.044119
v -2.265998 2.585541 0.053029
v -2.233311 2.621760 0.193851
v -2.176438 2.680389 0.197283
v -2.109351 2.749548 0.201334
v -2.042265 2.818706 0.205385
v -1.985391 2.877337 0.208817
v -1.942075 2.919468 0.072587
v -1.925033 2.935282 -0.022950
v -1.934682 2.923582 -0.120101
v -1.967369 2.887364 -0.260920
v -2.024242 2.828735 -0.264354
v -2.189747 3.103310 -0.264842
v -2.246621 3.044679 -0.268275
v -2.313707 2.975522 -0.272326
v -2.157060 3.139529 -0.124022
v -2.147412 3.151227 -0.026873
v -2.164453 3.135415 0.068666
v -2.207770 3.093282 0.204896
v -2.264643 3.034652 0.201462
v -2.331730 2.965493 0.197413
v -2.398816 2.896335 0.193361
v -2.455690 2.837705 0.189929
v -2.488376 2.801486 0.049107
v -2.498024 2.789787 -0.048040
v -2.480983 2.805600 -0.143579
v -2.437667 2.847733 -0.279811
v -2.380794 2.906363 -0.276375
v -2.427989 2.859507 -0.208024
v -2.205379 3.088992 -0.194582
v -2.425229 2.861042 -0.279955
v -2.202619 3.090528 -0.266513
v -2.443321 2.850975 0.191593
v -2.220711 3.080462 0.205032
v -2.440561 2.852511 0.119662
v -2.217951 3.081997 0.133101
v -2.687794 3.116011 -0.284585
v -2.690266 3.277147 -0.281241
v -2.722385 3.196094 -0.284203
v -2.626237 3.343156 -0.277374
v -2.465184 3.345496 -0.271145
v -2.546223 3.377698 -0.273565
v -2.693026 3.275612 -0.209309
v -2.690554 3.114474 -0.212655
v -2.725145 3.194557 -0.212272
v -2.467943 3.343961 -0.199214
v -2.628997 3.341619 -0.205444
v -2.548982 3.376163 -0.201637
v -2.703126 3.107479 0.115029
v -2.705598 3.268617 0.118376
v -2.737717 3.187563 0.115414
v -2.641569 3.334623 0.122240
v -2.480516 3.336967 0.128471
v -2.561555 3.369167 0.126048
v -2.708358 3.267081 0.190305
v -2.705886 3.105944 0.186961
v -2.740477 3.186028 0.187342
v -2.483276 3.335430 0.200400
v -2.644329 3.333088 0.194171
v -2.564314 3.367632 0.197979
v 0.905567 0.188515 -0.246209
v 0.900157 0.185506 -0.105225
v 0.568981 -0.158468 -0.266531
v 0.563571 -0.161478 -0.125547
v 0.553464 -0.167101 0.137880
v 0.548056 -0.170110 0.278863
v 0.890050 0.179883 0.158201
v 0.884642 0.176872 0.299185
v 0.642262 0.107288 -0.258046
v 0.578778 0.009048 -0.262579
v 0.738508 0.173712 -0.252935
v 0.557724 -0.106051 -0.265844
v 0.852865 0.198209 -0.248025
v 0.636853 0.104277 -0.117061
v 0.573370 0.006039 -0.121594
v 0.733099 0.170703 -0.111951
v 0.552314 -0.109060 -0.124860
v 0.847456 0.195199 -0.107040
v 0.626748 0.098654 0.146365
v 0.563262 0.000415 0.141831
v 0.722991 0.165078 0.151475
v 0.542207 -0.114684 0.138566
v 0.837348 0.189575 0.156386
v 0.621337 0.095644 0.287349
v 0.557853 -0.002595 0.282816
v 0.717583 0.162069 0.292459
v 0.831940 0.186565 0.297370
v 0.536798 -0.117694 0.279551
v 1.067201 0.114028 -0.268665
v 1.044202 0.101234 0.330758
v 1.133670 0.017679 -0.268171
v 1.110672 0.004884 0.331252
v 1.158248 -0.096755 -0.269672
v 1.135250 -0.109552 0.329752
v 1.137191 -0.211854 -0.272936
v 1.114194 -0.224651 0.326486
v 1.073709 -0.310094 -0.277469
v 1.050711 -0.322891 0.321953
v 0.977462 -0.376518 -0.282580
v 0.954463 -0.389316 0.316843
v 0.863105 -0.401014 -0.287490
v 0.840106 -0.413812 0.311932
v 0.748048 -0.379855 -0.291453
v 0.725049 -0.392652 0.307969
v 0.649806 -0.316258 -0.293865
v 0.626808 -0.329055 0.305557
v 0.583337 -0.219909 -0.294358
v 0.560338 -0.232705 0.305064
v 0.558760 -0.105473 -0.292858
v 0.535760 -0.118270 0.306564
v 0.579814 0.009625 -0.289593
v 0.556816 -0.003172 0.309830
v 0.643299 0.107864 -0.285060
v 0.620300 0.095068 0.314363
v 0.739545 0.174288 -0.279949
v 0.716547 0.161492 0.319473
v 0.853902 0.198785 -0.275038
v 0.830904 0.185989 0.324384
v 0.968959 0.177624 -0.271076
v 0.945961 0.164829 0.328347
v -1.335780 2.341318 0.118945
v -1.341189 2.338308 0.259928
v -1.320263 2.349951 -0.285467
v -1.325672 2.346941 -0.144482
v -1.656850 2.002968 -0.305787
v -1.662259 1.999958 -0.164803
v -1.672366 1.994334 0.098623
v -1.677775 1.991323 0.239608
v -2.258430 2.918617 -0.216271
v -2.306874 2.868925 -0.205476
v -2.348993 2.826215 -0.168947
v -2.378375 2.796986 -0.112246
v -2.390547 2.785691 -0.044005
v -2.383655 2.794048 0.025388
v -2.358750 2.820785 0.085367
v -2.319622 2.861831 0.126800
v -2.272229 2.910939 0.143382
v -2.223784 2.960630 0.132588
v -2.181665 3.003341 0.096058
v -2.152283 3.032568 0.039357
v -2.140111 3.043863 -0.028885
v -2.147003 3.035507 -0.098277
v -2.171908 3.008769 -0.158256
v -2.211036 2.967723 -0.199689
v -1.932417 2.505302 -0.198871
v -1.883973 2.554993 -0.209668
v -1.974536 2.462591 -0.162342
v -2.003919 2.433363 -0.105643
v -2.016091 2.422067 -0.037400
v -2.009199 2.430424 0.031991
v -1.984294 2.457163 0.091969
v -1.945165 2.498208 0.133405
v -1.897772 2.547315 0.149986
v -1.849327 2.597006 0.139190
v -1.807208 2.639717 0.102661
v -1.777826 2.668945 0.045961
v -1.765653 2.680240 -0.022281
v -1.772545 2.671882 -0.091673
v -1.797450 2.645146 -0.151652
v -1.836579 2.604100 -0.193086
v -1.884987 2.559140 -0.263670
v -1.748260 2.426369 -0.261258
v -1.811238 2.361770 -0.247224
v -1.865993 2.306246 -0.199736
v -1.904190 2.268250 -0.126025
v -1.920014 2.253566 -0.037311
v -1.911055 2.264429 0.052898
v -1.878677 2.299187 0.130871
v -1.827811 2.352548 0.184736
v -1.766199 2.416387 0.206292
v -1.703222 2.480985 0.192257
v -1.648466 2.536510 0.144769
v -1.610269 2.574506 0.071058
v -1.594446 2.589189 -0.017654
v -1.603405 2.578326 -0.107865
v -1.635782 2.543568 -0.185838
v -1.686648 2.490207 -0.239701
v -1.947965 2.494541 -0.249636
v -2.002720 2.439017 -0.202148
v -2.040917 2.401021 -0.128437
v -2.056741 2.386337 -0.039722
v -2.047782 2.397202 0.050488
v -2.015405 2.431959 0.128459
v -1.964538 2.485319 0.182324
v -1.902926 2.549159 0.203879
v -1.839949 2.613757 0.189845
v -1.785193 2.669281 0.142359
v -1.746996 2.707277 0.068647
v -1.731172 2.721961 -0.020066
v -1.740131 2.711097 -0.110278
v -1.772509 2.676339 -0.188249
v -1.823376 2.622977 -0.242113
v -1.382884 2.284330 -0.316336
v -1.284285 2.388701 -0.160179
v -1.310783 2.359457 -0.267989
v -1.701680 1.958415 -0.185381
v -1.591582 2.069185 -0.328935
v -1.667051 1.992185 -0.289498
v -1.295785 2.382303 0.139532
v -1.405883 2.271533 0.283088
v -1.330413 2.348534 0.243651
v -1.614580 2.056389 0.270487
v -1.713179 1.952016 0.114330
v -1.686682 1.981261 0.222141
v -1.542532 2.639476 -0.164735
v -1.641131 2.535105 -0.320890
v -1.569030 2.610232 -0.272543
v -1.849828 2.319961 -0.333490
v -1.959926 2.209189 -0.189935
v -1.925298 2.242959 -0.294054
v -1.664129 2.522307 0.278532
v -1.554031 2.633079 0.134976
v -1.588660 2.599309 0.239096
v -1.971425 2.202791 0.109777
v -1.872826 2.307163 0.265931
v -1.944928 2.232036 0.217586
v -2.467187 3.072357 -0.343651
v -2.443173 3.099813 -0.343933
v -2.524968 3.071925 -0.343589
v -2.489182 3.064857 -0.343560
v -2.554233 3.121747 -0.344026
v -2.542461 3.087224 -0.343714
v -2.525717 3.172002 -0.344523
v -2.549730 3.144545 -0.344243
v -2.467935 3.172433 -0.344586
v -2.503721 3.179499 -0.344616
v -2.438670 3.122612 -0.344150
v -2.450443 3.157135 -0.344461
v -2.443375 3.097944 -0.543924
v -2.467388 3.070489 -0.543643
v -2.489384 3.062989 -0.543551
v -2.525170 3.070057 -0.543581
v -2.542663 3.085355 -0.543705
v -2.554435 3.119878 -0.544017
v -2.549932 3.142677 -0.544234
v -2.525919 3.170132 -0.544515
v -2.503923 3.177631 -0.544607
v -2.468138 3.170563 -0.544577
v -2.450645 3.155266 -0.544451
v -2.438872 3.120742 -0.544141
v -2.416231 3.081398 -0.343788
v -2.445346 3.048109 -0.343447
v -2.491659 3.032318 -0.343252
v -2.535048 3.040888 -0.343289
v -2.571880 3.073100 -0.343553
v -2.586153 3.114958 -0.343930
v -2.576673 3.162960 -0.344388
v -2.547557 3.196249 -0.344729
v -2.501244 3.212040 -0.344923
v -2.457856 3.203470 -0.344887
v -2.421023 3.171259 -0.344623
v -2.406750 3.129400 -0.344246
v -2.445278 3.048738 -0.276162
v -2.416163 3.082027 -0.276502
v -2.534980 3.041517 -0.276004
v -2.491591 3.032948 -0.275968
v -2.586085 3.115586 -0.276645
v -2.571812 3.073728 -0.276268
v -2.547490 3.196877 -0.277443
v -2.576605 3.163588 -0.277103
v -2.457788 3.204100 -0.277600
v -2.501176 3.212669 -0.277637
v -2.406682 3.130029 -0.276961
v -2.420955 3.171888 -0.277337
vn 0.8224 -0.5681 0.0298
vn 0.6472 -0.7613 0.0399
vn 0.1793 -0.9824 0.0515
vn -0.0814 -0.9953 0.0522
vn -0.9039 -0.4272 0.0224
vn -0.9967 0.0813 -0.0043
vn -0.9416 0.3362 -0.0176
vn -0.8224 0.5681 -0.0298
vn -0.4278 0.9026 -0.0473
vn -0.1793 0.9824 -0.0515
vn -0.0000 -0.0523 -0.9986
vn -0.0000 0.0523 0.9986
vn -0.0000 0.0524 0.9986
vn 0.0814 0.9953 -0.0522
vn -0.0964 0.9940 -0.0521
vn 0.4739 -0.8794 0.0461
vn -0.5689 -0.8213 0.0430
vn -0.7623 -0.6463 0.0339
vn 0.6957 0.7171 0.0420
vn -0.7174 0.6966 -0.0126
vn -0.7174 0.6966 -0.0127
vn -0.7173 0.6966 -0.0126
vn -0.7173 0.6966 -0.0127
vn -0.0383 -0.0213 0.9990
vn -0.6957 -0.7171 -0.0420
vn 0.0383 0.0213 -0.9990
vn -0.3965 0.9180 0.0044
vn 0.3682 0.9291 0.0339
vn 0.3682 0.9291 0.0340
vn -0.9172 -0.3960 -0.0437
vn -0.9290 0.3691 -0.0278
vn -0.9172 -0.3960 -0.0436
vn -0.0384 -0.0213 0.9990
vn 0.0384 0.0214 -0.9990
vn 0.0384 0.0213 -0.9990
vn 0.0383 0.0214 -0.9990
vn 0.0668 -0.9977 0.0093
vn 0.5567 -0.8307 0.0072
vn -0.4411 -0.8974 0.0088
vn -0.8307 -0.5567 0.0060
vn 0.4936 0.5210 0.6964
vn 0.7100 0.3097 -0.6325
vn 0.5446 0.5493 -0.6338
vn 0.6589 0.2813 0.6977
vn 0.7711 0.0250 -0.6363
vn 0.7201 -0.0034 0.6939
vn 0.7187 -0.2613 -0.6443
vn 0.6677 -0.2896 0.6858
vn 0.5608 -0.5056 -0.6556
vn 0.5098 -0.5340 0.6745
vn 0.3214 -0.6708 -0.6683
vn 0.2704 -0.6992 0.6618
vn 0.0370 -0.7317 -0.6806
vn -0.0141 -0.7602 0.6496
vn -0.2492 -0.6791 -0.6904
vn -0.3003 -0.7075 0.6397
vn -0.4936 -0.5209 -0.6964
vn -0.5446 -0.5493 0.6337
vn -0.6589 -0.2813 -0.6976
vn -0.7099 -0.3097 0.6325
vn -0.7200 0.0034 -0.6939
vn -0.7711 -0.0250 0.6362
vn -0.6677 0.2897 -0.6858
vn -0.7187 0.2612 0.6444
vn -0.5098 0.5340 -0.6745
vn -0.5608 0.5056 0.6556
vn -0.2704 0.6992 -0.6618
vn -0.3214 0.6708 0.6684
vn 0.0141 0.7602 -0.6496
vn -0.0370 0.7318 0.6805
vn 0.3003 0.7075 -0.6397
vn 0.2492 0.6791 0.6904
vn -0.9978 -0.0668 0.0016
vn -0.8975 0.4411 -0.0032
vn 0.8307 0.5567 -0.0060
vn 0.4411 0.8974 -0.0088
vn -0.5567 0.8307 -0.0072
vn -0.0668 0.9977 -0.0093
vn 0.8975 -0.4411 0.0032
vn 0.9978 0.0667 -0.0016
vn -0.0010 -0.0093 -1.0000
vn -0.0010 -0.0094 -1.0000
vn 0.7173 -0.6966 0.0127
vn 0.7173 -0.6966 0.0126
vn 0.7174 -0.6966 0.0126
vn 0.7174 -0.6966 0.0127
vn -0.6748 -0.6992 -0.2361
vn 0.6613 0.6750 -0.3271
vn 0.6332 0.6594 0.4053
vn -0.6898 -0.7075 0.1537
vn 0.6748 0.6992 0.2361
vn -0.6613 -0.6750 0.3271
vn -0.6613 -0.6751 0.3271
vn -0.6332 -0.6594 -0.4053
vn 0.6898 0.7075 -0.1537
vn -0.9978 -0.0667 0.0016
vn 0.9978 0.0668 -0.0016
vn -0.0667 0.9977 -0.0093
vn -0.0009 -0.0093 -1.0000
vn -0.0012 -0.0095 -1.0000
vn -0.7937 0.0004 -0.6084
vn -0.0346 0.8039 0.5937
vn -0.0260 -0.9855 -0.1678
vn -0.9923 -0.0642 0.1063
vn -0.9811 -0.0580 -0.1846
vn 0.5508 -0.3750 0.7457
vn -0.6069 0.3437 0.7166
vn 0.3482 -0.5837 0.7335
vn -0.4043 0.5525 0.7289
vn -0.0491 0.8444 -0.5334
vn -0.3482 0.5837 -0.7335
vn 0.4043 -0.5525 -0.7288
vn -0.5508 0.3749 -0.7457
vn 0.0372 0.9917 -0.1231
vn 0.9811 0.0580 0.1846
vn 0.9923 0.0642 -0.1063
vn 0.0096 0.8285 -0.5598
vn 0.6379 0.6640 0.3901
vn 0.6648 0.6790 -0.3114
vn -0.8379 -0.0242 0.5452
vn -0.6379 -0.6640 -0.3901
vn -0.6648 -0.6790 0.3114
vn -0.6648 -0.6790 0.3115
vn -0.5376 0.5585 -0.6318
vn -0.6628 0.2978 -0.6870
vn -0.7051 0.3866 -0.5945
vn -0.3737 0.7283 -0.5744
vn -0.1212 0.8589 -0.4976
vn -0.2782 0.6942 -0.6638
vn -0.8318 0.1264 -0.5404
vn -0.8508 0.2389 -0.4681
vn -0.4684 0.4972 -0.7304
vn -0.9497 0.0091 -0.3129
vn -0.9524 0.1378 -0.2720
vn -0.9945 0.0988 -0.0360
vn -0.9986 -0.0362 -0.0391
vn -0.9709 -0.0027 0.2394
vn -0.9706 0.1277 0.2039
vn -0.8710 0.1046 0.4800
vn -0.8845 0.2201 0.4114
vn -0.7140 0.2693 0.6463
vn -0.7492 0.3621 0.5546
vn 0.3016 0.2941 -0.9069
vn 0.5190 0.5222 -0.6767
vn -0.1522 0.9627 -0.2237
vn 0.6574 0.6707 -0.3435
vn -0.1705 0.9525 0.2522
vn 0.6280 0.6544 0.4211
vn 0.4648 0.4920 0.7361
vn -0.4178 0.7038 0.5746
vn 0.2308 0.2547 0.9391
vn -0.5853 0.5319 0.6120
vn -0.3016 -0.2941 0.9069
vn -0.5190 -0.5222 0.6767
vn -0.6574 -0.6707 0.3435
vn -0.6280 -0.6544 -0.4211
vn -0.4648 -0.4920 -0.7361
vn -0.2308 -0.2547 -0.9391
vn -0.5238 0.4664 0.7129
vn -0.3294 0.6658 0.6695
vn -0.1604 0.8371 0.5230
vn -0.0425 0.9544 0.2954
vn 0.0064 0.9997 0.0216
vn -0.0213 0.9662 -0.2569
vn -0.2384 0.8702 -0.4311
vn -0.1284 0.9916 0.0162
vn -0.2721 0.8515 0.4483
vn 0.0260 0.9855 0.1677
vn 0.8130 -0.0570 0.5795
vn -0.0913 0.8210 0.5635
vn 0.0492 -0.8445 0.5334
vn -0.8551 0.0336 0.5174
vn 0.8551 -0.0336 -0.5174
vn 0.0913 -0.8210 -0.5635
vn -0.8130 0.0570 -0.5795
vn 0.6069 -0.3437 -0.7166
vn -0.0372 -0.9917 0.1231
vt -0.002734 0.058292
vt 0.036350 0.070598
vt -0.002640 0.070889
vt -0.002546 0.083486
vt 0.036444 0.083195
vt -0.002452 0.096083
vt 0.036720 0.120310
vt 0.036725 0.120895
vt -0.002264 0.121276
vt 0.036599 0.134238
vt -0.002382 0.133870
vt -0.002501 0.146465
vt 0.036480 0.146832
vt -0.002620 0.159059
vt 0.089189 0.070066
vt 0.072594 0.086322
vt 0.067351 0.070066
vt 0.109182 0.142560
vt 0.090087 0.153675
vt 0.096666 0.145432
vt 0.083158 0.079933
vt 0.095363 0.078072
vt 0.037519 0.099898
vt 0.064188 0.120461
vt 0.037519 0.121736
vt 0.070578 0.131025
vt 0.048438 0.140649
vt 0.080524 0.138340
vt 0.067351 0.151569
vt 0.092512 0.141291
vt 0.089189 0.151569
vt 0.104717 0.139431
vt 0.108102 0.140649
vt 0.062328 0.108256
vt 0.065280 0.096268
vt 0.048438 0.080985
vt 0.107348 0.081034
vt 0.062737 0.113373
vt 0.065606 0.125928
vt 0.037181 0.098770
vt 0.064948 0.100694
vt 0.048982 0.079302
vt 0.071843 0.089826
vt 0.068937 0.068343
vt 0.091698 0.068830
vt 0.082372 0.082424
vt 0.094932 0.079615
vt 0.107611 0.081826
vt 0.083968 0.143279
vt 0.067309 0.153294
vt 0.047773 0.141575
vt 0.073061 0.136430
vt 0.036718 0.121644
vt 0.036242 0.172021
vt -0.002739 0.171653
vt 0.036240 0.055926
vt 0.036256 0.058001
vt 0.036232 0.172701
vt 0.111166 0.080631
vt 0.036538 0.095792
vt -0.002358 0.108680
vt 0.036632 0.108389
vt 0.036361 0.159427
vt 0.110004 0.142616
vt 0.108102 0.080985
vt -0.002750 0.056217
vt -0.002750 0.172333
vt 0.355705 0.237792
vt 0.295105 0.328071
vt 0.280266 0.313231
vt 0.391665 0.201832
vt 0.425475 0.197701
vt 0.406504 0.216672
vt 0.458262 0.161182
vt 0.518862 0.070903
vt 0.533701 0.085743
vt 0.422302 0.197142
vt 0.388492 0.201273
vt 0.407462 0.182302
vt 0.557949 0.107683
vt 0.547523 0.053769
vt 0.583119 0.018173
vt 0.291933 0.327512
vt 0.352532 0.237233
vt 0.367372 0.252072
vt 0.557949 0.106662
vt 0.547523 0.052747
vt 0.583119 0.017152
vt 0.546801 0.055378
vt 0.582397 0.019782
vt 0.696705 0.119718
vt 0.546801 0.051138
vt 0.582397 0.015542
vt 0.696705 0.115478
vt 0.373685 0.219812
vt 0.388525 0.234652
vt 0.461435 0.161741
vt 0.428615 0.164882
vt 0.446595 0.146902
vt 0.443455 0.179721
vt 0.410635 0.182862
vt 0.440282 0.179162
vt 0.425442 0.164322
vt 0.385352 0.234092
vt 0.370512 0.219253
vt 0.403332 0.216113
vt 0.522034 0.071463
vt 0.370545 0.252632
vt 0.443422 0.146343
vt 0.697427 0.018173
vt 0.697427 0.118109
vt 0.583119 0.118109
vt 0.547523 0.082513
vt 0.557949 0.028599
vt 0.277093 0.312672
vt 0.697427 0.017152
vt 0.697427 0.117087
vt 0.583119 0.117087
vt 0.547523 0.081492
vt 0.557949 0.027577
vt 0.582397 0.119718
vt 0.557227 0.109292
vt 0.546801 0.084122
vt 0.557227 0.030208
vt 0.696705 0.019782
vt 0.582397 0.115478
vt 0.557227 0.105052
vt 0.546801 0.079883
vt 0.557227 0.025968
vt 0.696705 0.015542
vt 0.536874 0.086302
vt 0.962003 0.951947
vt 0.995228 0.927786
vt 0.995228 0.951947
vt 0.962003 0.973785
vt 0.995228 0.997947
vt 0.962003 0.997947
vt 0.962003 0.927786
vt 0.995228 0.973785
vt 0.607413 0.036614
vt 0.603145 0.014733
vt 0.607413 0.014733
vt 0.603145 0.036614
vt 0.598876 0.014733
vt 0.598876 0.036614
vt 0.594607 0.014733
vt 0.594607 0.036614
vt 0.590339 0.014733
vt 0.590339 0.036614
vt 0.586070 0.014733
vt 0.586070 0.036614
vt 0.581802 0.014733
vt 0.581802 0.036614
vt 0.577533 0.014733
vt 0.577533 0.036614
vt 0.573264 0.014733
vt 0.573264 0.036614
vt 0.568996 0.014733
vt 0.637294 0.036614
vt 0.633025 0.014733
vt 0.637294 0.014733
vt 0.633025 0.036614
vt 0.628757 0.014733
vt 0.628757 0.036614
vt 0.624488 0.014733
vt 0.624488 0.036614
vt 0.620219 0.014733
vt 0.620219 0.036614
vt 0.615951 0.014733
vt 0.615951 0.036614
vt 0.611682 0.014733
vt 0.611682 0.036614
vt 0.568996 0.036614
vt 0.961280 0.946844
vt 0.928054 0.922682
vt 0.961280 0.922682
vt 0.961280 0.830683
vt 0.928054 0.854844
vt 0.928054 0.830683
vt 0.961280 0.900844
vt 0.928054 0.876682
vt 0.961280 0.876682
vt 0.928054 0.784683
vt 0.961280 0.762844
vt 0.961280 0.784683
vt 0.928054 0.968682
vt 0.961280 0.968682
vt 0.961280 0.854844
vt 0.961280 0.808844
vt 0.928054 0.808844
vt 0.830149 0.564803
vt 0.835887 0.574741
vt 0.814149 0.566716
vt 0.826230 0.587641
vt 0.814149 0.544878
vt 0.830149 0.546791
vt 0.845142 0.513034
vt 0.835887 0.536853
vt 0.826230 0.523953
vt 0.888216 0.523953
vt 0.878559 0.536853
vt 0.862960 0.527848
vt 0.845142 0.598560
vt 0.851485 0.583746
vt 0.851485 0.527848
vt 0.869304 0.598560
vt 0.869304 0.513034
vt 0.862960 0.583746
vt 0.900297 0.566716
vt 0.888216 0.587641
vt 0.878559 0.574741
vt 0.900297 0.544878
vt 0.884296 0.546791
vt 0.884296 0.564803
vt 0.928054 0.946844
vt 0.928054 0.900844
vt 0.928054 0.762844
vt 0.414083 0.020191
vt 0.394006 0.009194
vt 0.414083 0.005200
vt 0.440583 0.031167
vt 0.463030 0.037589
vt 0.448707 0.043325
vt 0.440583 0.084166
vt 0.463030 0.077745
vt 0.463030 0.094766
vt 0.414084 0.095142
vt 0.394006 0.106139
vt 0.399742 0.092290
vt 0.379460 0.043325
vt 0.365137 0.057667
vt 0.365137 0.037589
vt 0.387584 0.031167
vt 0.399742 0.023043
vt 0.434161 0.009194
vt 0.463030 0.020567
vt 0.448707 0.072008
vt 0.463030 0.057667
vt 0.434161 0.106139
vt 0.414084 0.110133
vt 0.387584 0.084166
vt 0.365137 0.077745
vt 0.379460 0.072008
vt 0.365137 0.020567
vt 0.428425 0.023043
vt 0.451559 0.057667
vt 0.428425 0.092290
vt 0.360949 0.270723
vt 0.401924 0.282747
vt 0.387449 0.297222
vt 0.376608 0.057667
vt 0.365137 0.094766
vt 0.434161 0.010684
vt 0.434161 0.107629
vt 0.365137 0.079234
vt 0.312776 0.318896
vt 0.353472 0.331198
vt 0.339275 0.345396
vt 0.286543 0.345129
vt 0.325078 0.359593
vt 0.313042 0.371629
vt 0.298579 0.333093
vt 0.537138 0.094534
vt 0.541697 0.142974
vt 0.515198 0.116474
vt 0.464307 0.167365
vt 0.512746 0.171924
vt 0.490806 0.193865
vt 0.438073 0.193598
vt 0.450376 0.234295
vt 0.423876 0.207796
vt 0.389900 0.241772
vt 0.375425 0.256247
vt 0.326973 0.304699
vt 0.365508 0.319162
vt 0.500722 0.130949
vt 0.486247 0.145425
vt 0.452271 0.179401
vt 0.464573 0.220098
vt 0.411840 0.219831
vt 0.416399 0.268271
vt 0.339009 0.292663
vt 0.527222 0.157449
vt 0.478770 0.205901
vt 0.438340 0.246331
vt 0.365137 0.039078
vt 0.365137 0.022057
vt 0.394006 0.010684
vt 0.414084 0.006690
vt 0.463030 0.022057
vt 0.463030 0.039078
vt 0.463030 0.059156
vt 0.365137 0.059156
vt 0.463030 0.079234
vt 0.463030 0.096255
vt 0.414083 0.111622
vt 0.394006 0.107629
vt 0.365137 0.096255
vt 0.563638 0.121033
vt 0.703212 0.935314
vt 0.692293 0.968139
vt 0.669325 0.942270
vt 0.745623 0.945876
vt 0.816728 0.954138
vt 0.745623 0.954138
vt 0.745623 0.903415
vt 0.816728 0.911677
vt 0.745623 0.911677
vt 0.745623 0.890447
vt 0.816728 0.882185
vt 0.816728 0.890447
vt 0.745623 0.924646
vt 0.816728 0.932908
vt 0.745623 0.932908
vt 0.745623 0.967107
vt 0.816728 0.975368
vt 0.745623 0.975369
vt 0.745623 0.988337
vt 0.816728 0.869216
vt 0.745623 0.882185
vt 0.745623 0.869216
vt 0.816728 0.996599
vt 0.745623 0.996599
vt 0.673341 0.935314
vt 0.684260 0.929010
vt 0.692293 0.929010
vt 0.707228 0.942270
vt 0.707228 0.954879
vt 0.703212 0.961835
vt 0.684260 0.968139
vt 0.673341 0.961835
vt 0.669325 0.954879
vt 0.816728 0.945876
vt 0.816728 0.903415
vt 0.816728 0.924646
vt 0.816728 0.967107
vt 0.816728 0.988337
vt 0.580852 0.146243
vt 0.654403 0.833258
vt 0.628151 0.827709
vt 0.556250 0.098026
vt 0.676256 0.087072
vt 0.675217 0.091635
vt 0.557193 0.073165
vt 0.675612 0.059977
vt 0.674674 0.064508
vt 0.545290 0.056720
vt 0.536160 0.045764
vt 0.545290 0.045764
vt 0.520640 0.032070
vt 0.531595 0.041199
vt 0.520640 0.041199
vt 0.531595 0.032070
vt 0.548517 0.028842
vt 0.549855 0.032070
vt 0.560810 0.041199
vt 0.549855 0.041199
vt 0.549855 0.025082
vt 0.560810 0.015953
vt 0.560810 0.025082
vt 0.629694 0.112102
vt 0.643987 0.102551
vt 0.653538 0.116845
vt 0.630084 0.112301
vt 0.644378 0.102750
vt 0.653929 0.117044
vt 0.557340 0.054040
vt 0.679987 0.048462
vt 0.679987 0.054040
vt 0.557124 0.053931
vt 0.679770 0.048875
vt 0.679746 0.054452
vt 0.556784 0.078691
vt 0.680912 0.075517
vt 0.680800 0.081157
vt 0.557105 0.078806
vt 0.681243 0.075104
vt 0.681154 0.080745
vt 0.532927 0.141943
vt 0.460758 0.829304
vt 0.434016 0.833977
vt 0.551144 0.078535
vt 0.550610 0.097870
vt 0.551762 0.053997
vt 0.670009 0.105863
vt 0.673857 0.105126
vt 0.672638 0.106952
vt 0.667164 0.105863
vt 0.663315 0.105126
vt 0.666735 0.103710
vt 0.676475 0.107745
vt 0.674649 0.108965
vt 0.670437 0.103710
vt 0.677892 0.111165
vt 0.675738 0.111594
vt 0.675738 0.114439
vt 0.677891 0.114867
vt 0.676475 0.118287
vt 0.674650 0.117068
vt 0.673858 0.120904
vt 0.672638 0.119079
vt 0.670438 0.122321
vt 0.670009 0.120168
vt 0.649919 0.016570
vt 0.647358 0.035606
vt 0.647358 0.016570
vt 0.652480 0.016570
vt 0.649919 0.035606
vt 0.655042 0.035606
vt 0.655042 0.016570
vt 0.657603 0.016570
vt 0.660164 0.035606
vt 0.660164 0.016570
vt 0.662725 0.016570
vt 0.665286 0.035606
vt 0.665286 0.016570
vt 0.667848 0.035606
vt 0.667848 0.016570
vt 0.670409 0.016570
vt 0.672970 0.035606
vt 0.672970 0.016570
vt 0.675531 0.016570
vt 0.678092 0.035606
vt 0.678092 0.016570
vt 0.680653 0.016570
vt 0.642236 0.035606
vt 0.639675 0.016570
vt 0.642236 0.016570
vt 0.644797 0.016570
vt 0.669494 0.037595
vt 0.673194 0.045317
vt 0.669494 0.045317
vt 0.676893 0.037595
vt 0.676893 0.045317
vt 0.680593 0.037595
vt 0.680593 0.045317
vt 0.621401 0.037595
vt 0.625101 0.045317
vt 0.621401 0.045317
vt 0.628800 0.037595
vt 0.628800 0.045317
vt 0.632500 0.045317
vt 0.632500 0.037595
vt 0.636199 0.045317
vt 0.636199 0.037595
vt 0.639899 0.045317
vt 0.639899 0.037595
vt 0.643598 0.045317
vt 0.643598 0.037595
vt 0.647298 0.045317
vt 0.647298 0.037595
vt 0.650997 0.045317
vt 0.654696 0.037595
vt 0.654696 0.045317
vt 0.658396 0.045317
vt 0.662095 0.037595
vt 0.662095 0.045317
vt 0.665795 0.045317
vt 0.665795 0.037595
vt 0.664535 0.106952
vt 0.660698 0.107744
vt 0.661435 0.111592
vt 0.662523 0.108963
vt 0.659281 0.114865
vt 0.659282 0.111164
vt 0.662524 0.117066
vt 0.661435 0.114437
vt 0.663316 0.120904
vt 0.660698 0.118286
vt 0.667164 0.120168
vt 0.664535 0.119078
vt 0.666736 0.122321
vt 0.531595 0.025082
vt 0.520640 0.028576
vt 0.520640 0.025082
vt 0.531595 0.028576
vt 0.532666 0.056720
vt 0.532666 0.045764
vt 0.529173 0.045764
vt 0.560810 0.028576
vt 0.549855 0.028576
vt 0.548783 0.056720
vt 0.549855 0.044693
vt 0.560810 0.044693
vt 0.549855 0.070414
vt 0.532932 0.073642
vt 0.536160 0.056720
vt 0.579290 0.847266
vt 0.566549 0.865538
vt 0.691746 0.147570
vt 0.688723 0.858776
vt 0.676532 0.848430
vt 0.601776 0.832628
vt 0.678494 0.100209
vt 0.681646 0.102481
vt 0.678963 0.083255
vt 0.676003 0.096248
vt 0.678082 0.072920
vt 0.678212 0.056150
vt 0.675542 0.069053
vt 0.532932 0.044427
vt 0.532932 0.028842
vt 0.536160 0.027505
vt 0.545290 0.027505
vt 0.548517 0.044427
vt 0.560810 0.032070
vt 0.549855 0.015953
vt 0.651723 0.121227
vt 0.648369 0.124581
vt 0.643987 0.126396
vt 0.639244 0.126396
vt 0.634862 0.124581
vt 0.631509 0.121227
vt 0.629694 0.116845
vt 0.631509 0.107720
vt 0.634862 0.104366
vt 0.639244 0.102551
vt 0.648369 0.104366
vt 0.651723 0.107720
vt 0.653538 0.112102
vt 0.652114 0.121425
vt 0.648760 0.124779
vt 0.644378 0.126594
vt 0.639635 0.126594
vt 0.635253 0.124779
vt 0.631899 0.121425
vt 0.630084 0.117044
vt 0.631899 0.107919
vt 0.635253 0.104565
vt 0.639635 0.102750
vt 0.648760 0.104565
vt 0.652114 0.107919
vt 0.653929 0.112301
vt 0.557340 0.048462
vt 0.557148 0.048354
vt 0.556896 0.073051
vt 0.397997 0.866867
vt 0.420752 0.139323
vt 0.521681 0.861431
vt 0.509466 0.850825
vt 0.487253 0.835220
vt 0.411098 0.848528
vt 0.551615 0.073122
vt 0.652480 0.035606
vt 0.657603 0.035606
vt 0.662725 0.035606
vt 0.670409 0.035606
vt 0.675531 0.035606
vt 0.680653 0.035606
vt 0.639675 0.035606
vt 0.644797 0.035606
vt 0.673194 0.037595
vt 0.625101 0.037595
vt 0.650997 0.037595
vt 0.658396 0.037595
vt 0.529173 0.056720
vt 0.548783 0.045764
vt 0.548517 0.058057
vt 0.549855 0.061285
vt 0.548517 0.073642
vt 0.545290 0.074979
vt 0.536160 0.074979
vt 0.531595 0.070414
vt 0.531595 0.061285
vt 0.532932 0.058057
s 1
g off
g RoverModificado.004_SpacialRoverExploreralumWhite
usemtl SpacialRoverExploreralumWhite
f 5/1/1 8/2/2 7/3/2
f 8/2/2 9/4/3 7/3/2
f 10/5/3 11/6/4 9/4/3
s 2
f 44/7/5 43/8/5 15/9/5
s 3
f 15/9/6 18/10/7 17/11/7
f 18/10/7 19/12/8 17/11/7
s 4
f 20/13/9 1/14/10 19/12/9
s 5
f 1/15/11 31/16/11 19/17/11
s 6
f 42/18/12 2/19/12 39/20/12
s 5
f 37/21/11 1/15/11 40/22/11
f 15/23/11 21/24/11 13/25/11
f 13/25/11 23/26/11 11/27/11
f 11/27/11 29/28/11 9/29/11
f 9/29/11 34/30/11 7/31/11
s 7
f 7/31/11 35/32/11 5/33/11
s 5
f 35/32/11 7/31/11 34/30/11
f 34/30/11 9/29/11 29/28/11
f 29/28/11 11/27/11 23/26/11
f 23/26/11 13/25/11 21/24/11
f 21/24/11 15/23/11 25/34/11
f 19/17/11 31/16/11 27/35/11
f 27/35/11 25/34/11 17/36/11
f 25/34/11 15/23/11 17/36/11
f 17/36/11 19/17/11 27/35/11
f 31/16/11 1/15/11 37/21/11
f 1/15/11 41/37/11 40/22/11
s 6
f 43/8/12 26/38/12 28/39/12
f 26/38/12 14/40/12 22/41/12
f 22/41/12 12/42/12 24/43/12
f 24/43/12 12/42/12 10/44/12
f 10/44/12 8/45/12 30/46/12
f 30/46/12 8/45/12 33/47/12
f 33/47/12 8/45/12 36/48/13
f 30/46/12 24/43/12 10/44/12
f 12/42/12 22/41/12 14/40/12
f 14/40/12 26/38/12 44/7/12
f 39/20/12 2/19/12 38/49/12
f 38/49/12 2/19/12 20/50/12
f 20/50/12 18/51/12 32/52/12
f 16/53/12 28/39/12 18/51/12
f 28/39/12 32/52/12 18/51/12
f 32/52/12 38/49/12 20/50/12
s 4
f 1/14/10 4/54/14 3/55/14
s 8
f 5/1/15 36/56/15 6/57/15
s 9
f 42/58/16 3/55/16 4/54/16
s 6
f 36/48/13 8/45/12 6/59/13
s 2
f 12/60/17 13/61/18 11/6/17
s 1
f 5/1/1 6/57/1 8/2/2
f 8/2/2 10/5/3 9/4/3
f 10/5/3 12/60/4 11/6/4
s 2
f 15/9/5 13/61/18 14/62/18
f 15/9/5 14/62/18 44/7/5
f 43/8/5 16/53/5 15/9/5
s 3
f 15/9/6 16/53/6 18/10/7
f 18/10/7 20/13/8 19/12/8
s 4
f 20/13/9 2/63/10 1/14/10
s 10
f 42/18/12 4/64/12 2/19/12
s 5
f 1/15/11 3/65/11 41/37/11
s 6
f 43/8/12 44/7/12 26/38/12
f 16/53/12 43/8/12 28/39/12
s 4
f 1/14/10 2/63/10 4/54/14
s 11
f 5/1/15 35/66/15 36/56/15
s 9
f 42/58/16 41/67/16 3/55/16
s 2
f 12/60/17 14/62/18 13/61/18
s 12
f 105/68/19 94/69/19 96/70/19
s 13
f 104/71/20 107/72/21 111/73/22
s 14
f 117/74/19 98/75/19 100/76/19
s 15
f 116/77/23 119/78/23 123/79/21
s 16
f 112/80/24 107/81/24 108/82/24
s 17
f 99/83/25 120/84/25 113/85/25
s 18
f 124/86/24 119/87/24 120/88/24
s 19
f 116/89/26 117/90/26 99/91/26
s 20
f 104/92/26 105/93/26 95/94/26
s 21
f 111/73/27 106/95/27 104/71/27
s 22
f 112/96/28 105/68/28 106/95/29
s 23
f 108/97/30 103/98/30 101/99/30
s 24
f 109/100/31 102/101/31 103/98/31
s 25
f 123/79/27 118/102/27 116/77/27
s 26
f 124/103/29 117/74/29 118/102/29
s 27
f 120/84/32 115/104/32 113/85/32
s 28
f 121/105/31 114/106/31 115/104/31
s 29
f 95/107/25 108/97/25 101/99/25
s 12
f 105/68/19 110/108/19 94/69/19
s 13
f 104/71/20 102/101/21 107/72/21
s 14
f 117/74/19 122/109/19 98/75/19
s 15
f 116/77/23 114/106/23 119/78/23
s 30
f 108/82/24 93/110/24 94/111/24
s 16
f 94/111/24 110/112/24 112/80/24
f 112/80/24 111/113/24 107/81/24
f 107/81/24 109/114/24 108/82/24
f 108/82/24 94/111/24 112/80/24
s 17
f 99/83/25 97/115/25 120/84/25
s 31
f 120/88/24 97/116/24 98/117/24
s 18
f 98/117/24 122/118/24 124/86/24
f 124/86/24 123/119/24 119/87/24
f 119/87/24 121/120/33 120/88/24
f 120/88/24 98/117/24 124/86/24
s 19
f 99/91/26 113/121/34 115/122/26
f 115/122/26 114/123/26 116/89/26
f 116/89/26 118/124/26 117/90/26
s 32
f 117/90/26 100/125/26 99/91/26
s 19
f 99/91/26 115/122/26 116/89/26
s 20
f 95/94/26 101/126/26 103/127/26
f 103/127/26 102/128/35 104/92/26
f 104/92/26 106/129/36 105/93/26
s 33
f 105/93/26 96/130/26 95/94/26
s 20
f 95/94/26 103/127/26 104/92/26
s 21
f 111/73/27 112/96/27 106/95/27
s 22
f 112/96/28 110/108/28 105/68/28
s 23
f 108/97/30 109/100/30 103/98/30
s 24
f 109/100/31 107/72/31 102/101/31
s 25
f 123/79/27 124/103/27 118/102/27
s 26
f 124/103/29 122/109/29 117/74/29
s 27
f 120/84/32 121/105/30 115/104/32
s 28
f 121/105/31 119/78/31 114/106/31
s 29
f 95/107/25 93/131/25 108/97/25
s 34
f 307/132/37 317/133/38 320/134/37
f 308/135/39 322/136/40 309/137/40
f 320/134/37 308/135/39 307/132/37
f 307/132/37 306/138/38 317/133/38
f 308/135/39 319/139/39 322/136/40
f 320/134/37 319/139/39 308/135/39
s 35
g RoverModificado.004_SpacialRoverExploreralumGray
usemtl SpacialRoverExploreralumGray
f 154/140/41 155/141/42 153/142/43
f 156/143/44 157/144/45 155/141/42
f 158/145/46 159/146/47 157/144/45
f 160/147/48 161/148/49 159/146/47
f 162/149/50 163/150/51 161/148/49
f 164/151/52 165/152/53 163/150/51
f 166/153/54 167/154/55 165/152/53
f 168/155/56 169/156/57 167/154/55
f 170/157/58 171/158/59 169/156/57
f 172/159/60 173/160/61 171/161/59
f 174/162/62 175/163/63 173/160/61
f 176/164/64 177/165/65 175/163/63
f 178/166/66 179/167/67 177/165/65
f 180/168/68 181/169/69 179/167/67
f 182/170/70 183/171/71 181/169/69
f 184/172/72 153/142/43 183/171/71
f 154/140/41 156/143/44 155/141/42
f 156/143/44 158/145/46 157/144/45
f 158/145/46 160/147/48 159/146/47
f 160/147/48 162/149/50 161/148/49
f 162/149/50 164/151/52 163/150/51
f 164/151/52 166/153/54 165/152/53
f 166/153/54 168/155/56 167/154/55
f 168/155/56 170/157/58 169/156/57
f 170/157/58 172/173/60 171/158/59
f 172/159/60 174/162/62 173/160/61
f 174/162/62 176/164/64 175/163/63
f 176/164/64 178/166/66 177/165/65
f 178/166/66 180/168/68 179/167/67
f 180/168/68 182/170/70 181/169/69
f 182/170/70 184/172/72 183/171/71
f 184/172/72 154/140/41 153/142/43
s 34
f 310/174/73 324/175/74 311/176/74
f 315/177/75 325/178/76 328/179/75
f 312/180/77 326/181/78 313/182/78
f 318/183/79 306/184/38 305/185/79
f 322/186/40 310/174/73 309/187/40
f 324/175/74 312/180/77 311/176/74
f 326/181/78 314/188/76 313/182/78
f 328/179/75 316/189/80 315/177/75
f 305/185/79 327/190/80 318/183/79
s 36
f 288/191/81 285/192/81 311/193/81
f 285/192/81 310/194/81 311/193/81
f 312/195/82 288/191/81 311/193/81
f 288/191/81 312/195/82 287/196/82
f 314/197/82 290/198/82 313/199/82
f 316/200/82 291/201/82 292/202/81
f 285/192/81 309/203/81 310/194/81
f 309/203/81 285/192/81 286/204/82
f 289/205/82 290/198/82 314/197/82
f 308/206/82 309/203/81 286/204/82
f 315/207/81 292/202/81 314/197/82
f 308/206/82 286/204/82 283/208/82
f 306/209/82 307/210/82 284/211/82
f 308/206/82 283/208/82 284/211/82
f 315/207/81 316/200/82 292/202/81
f 307/210/82 308/206/82 284/211/82
f 305/212/82 282/213/81 291/201/82
f 281/214/81 306/209/82 284/211/82
f 316/200/82 305/212/82 291/201/82
f 282/213/81 306/209/82 281/214/81
f 312/195/82 313/199/82 287/196/82
f 292/202/81 289/205/82 314/197/82
f 306/209/82 282/213/81 305/212/82
f 290/198/82 287/196/82 313/199/82
s 34
f 310/174/73 321/215/73 324/175/74
f 315/177/75 314/188/76 325/178/76
f 312/180/77 323/216/77 326/181/78
f 318/183/79 317/217/38 306/184/38
f 322/186/40 321/215/73 310/174/73
f 324/175/74 323/216/77 312/180/77
f 326/181/78 325/178/76 314/188/76
f 328/179/75 327/190/80 316/189/80
f 305/185/79 316/189/80 327/190/80
s 37
g RoverModificado.004_SpacialRoverExploreralumBlack
usemtl SpacialRoverExploreralumBlack
f 59/218/83 74/219/84 73/220/84
f 57/221/84 70/222/85 56/223/85
f 53/224/86 68/225/83 67/226/83
f 51/227/86 64/228/86 50/229/86
f 62/230/86 46/231/85 76/232/83
f 61/233/83 74/219/84 60/234/84
f 57/221/84 72/235/83 71/236/84
f 54/237/86 69/238/85 68/225/83
f 51/227/86 66/239/85 65/240/86
f 49/241/86 45/242/86 48/243/86
f 61/233/83 76/232/83 75/244/83
f 59/218/83 72/235/83 58/245/83
f 56/223/85 69/238/85 55/246/85
f 53/224/86 66/239/85 52/247/85
s 38
f 64/248/87 89/249/87 90/250/87
s 37
f 48/243/86 46/231/85 47/251/85
f 49/241/86 64/228/86 63/252/86
s 39
f 88/253/23 82/254/23 78/255/23
s 40
f 46/256/26 92/257/26 79/258/26
f 75/259/26 78/260/26 77/261/26
f 76/262/26 79/258/26 78/260/26
s 41
f 75/263/88 80/264/88 74/265/88
s 42
f 71/266/89 82/267/89 83/268/89
s 43
f 69/269/24 86/270/24 68/271/24
s 44
f 66/272/90 89/249/90 65/273/90
s 40
f 45/274/26 91/275/26 92/257/26
s 45
f 73/276/91 82/267/91 72/277/91
s 43
f 70/278/24 85/279/24 69/269/24
s 46
f 67/280/92 88/281/93 66/272/92
s 47
f 63/282/94 90/250/94 91/275/94
s 48
f 73/276/95 80/264/95 81/283/95
s 43
f 71/266/24 84/284/24 70/278/24
f 68/271/24 87/285/24 67/280/24
s 37
f 59/218/83 60/234/84 74/219/84
f 57/221/84 71/236/84 70/222/85
f 53/224/86 54/237/86 68/225/83
f 51/227/86 65/240/86 64/228/86
f 62/230/86 47/251/85 46/231/85
f 61/233/83 75/244/83 74/219/84
f 57/221/84 58/245/83 72/235/83
f 54/237/86 55/246/85 69/238/85
f 51/227/86 52/247/85 66/239/85
f 49/241/86 63/252/86 45/242/86
f 61/233/83 62/230/86 76/232/83
f 59/218/83 73/220/84 72/235/83
f 56/223/85 70/222/85 69/238/85
f 53/224/86 67/226/83 66/239/85
s 38
f 64/248/87 65/273/87 89/249/87
s 37
f 48/243/86 45/242/86 46/231/85
f 49/241/86 50/229/86 64/228/86
s 39
f 92/286/20 91/287/21 90/288/21
f 90/288/21 89/289/22 88/253/23
f 88/253/23 87/290/23 86/291/23
f 88/253/23 86/291/23 85/292/23
f 92/286/20 90/288/21 88/253/23
f 79/293/22 92/286/20 88/253/23
f 88/253/23 85/292/23 84/294/21
f 84/294/21 83/295/23 82/254/23
f 82/254/23 81/296/23 80/297/23
f 80/297/23 77/298/21 78/255/23
f 78/255/23 79/293/22 88/253/23
f 88/253/23 84/294/21 82/254/23
f 82/254/23 80/297/23 78/255/23
s 40
f 46/256/26 45/274/26 92/257/26
f 75/259/26 76/262/26 78/260/26
f 76/262/26 46/256/26 79/258/26
s 41
f 75/263/88 77/299/88 80/264/88
s 42
f 71/266/89 72/277/89 82/267/89
s 43
f 69/269/24 85/279/24 86/270/24
s 44
f 66/272/90 88/281/90 89/249/90
s 40
f 45/274/26 63/282/26 91/275/26
s 45
f 73/276/91 81/283/91 82/267/91
s 43
f 70/278/24 84/284/24 85/279/24
s 46
f 67/280/92 87/285/93 88/281/93
s 47
f 63/282/94 64/248/94 90/250/94
s 48
f 73/276/95 74/265/95 80/264/95
s 43
f 71/266/24 83/268/24 84/284/24
f 68/271/24 86/270/24 87/285/24
s 49
g RoverModificado.004_SpacialRoverExploreralumOrange
usemtl SpacialRoverExploreralumOrange
f 294/300/81 298/301/82 302/302/81
s 50
f 288/303/74 298/304/73 285/305/96
f 292/306/75 302/307/76 289/308/76
f 291/309/80 293/310/79 304/311/97
f 290/312/98 300/313/77 287/314/77
f 286/315/40 296/316/39 283/317/39
f 296/316/39 284/318/37 283/317/39
f 302/307/76 290/312/98 289/308/76
f 304/311/97 292/306/75 291/309/80
f 300/313/77 288/303/74 287/314/77
f 298/304/73 286/315/40 285/305/96
f 294/319/38 282/320/79 281/321/38
f 284/318/37 294/322/38 281/323/38
s 49
f 302/302/81 303/324/99 304/325/81
f 304/325/81 293/326/81 294/300/81
f 294/300/81 295/327/82 296/328/82
f 296/328/82 297/329/100 298/301/82
f 298/301/82 299/330/81 300/331/81
f 300/331/81 301/332/81 302/302/81
f 302/302/81 304/325/81 294/300/81
f 294/300/81 296/328/82 298/301/82
f 298/301/82 300/331/81 302/302/81
s 50
f 288/303/74 299/333/74 298/304/73
f 292/306/75 303/334/75 302/307/76
f 291/309/80 282/320/79 293/310/79
f 290/312/98 301/335/78 300/313/77
f 286/315/40 297/336/40 296/316/39
f 296/316/39 295/337/37 284/318/37
f 302/307/76 301/335/78 290/312/98
f 304/311/97 303/334/75 292/306/75
f 300/313/77 299/333/74 288/303/74
f 298/304/73 297/336/40 286/315/40
f 294/319/38 293/310/79 282/320/79
f 284/318/37 295/337/37 294/322/38
s 51
g RoverModificado.004_SpacialRoverExploreralumArm
usemtl SpacialRoverExploreralumArm
f 189/338/101 135/339/26 133/340/26
f 188/341/102 139/342/24 138/343/24
s 52
f 191/344/101 145/345/26 143/346/26
s 53
f 260/347/103 278/348/104 273/349/105
f 264/350/106 279/351/107 266/352/108
f 275/353/109 271/354/110 273/349/105
f 270/355/111 261/356/112 272/357/113
f 269/358/114 263/359/115 258/360/116
s 35
f 174/361/62 166/362/54 158/363/46
f 167/364/55 175/365/63 183/366/71
s 52
f 185/367/117 132/368/118 131/369/119
s 51
f 187/370/117 126/371/118 125/372/119
f 190/373/120 127/374/121 128/375/122
s 52
f 192/376/120 129/377/121 130/378/123
f 192/379/120 148/380/24 150/381/24
s 51
f 189/382/101 188/341/102 187/383/117
s 52
f 191/344/101 186/384/102 185/367/117
s 54
f 210/385/124 242/386/125 209/387/126
f 224/388/127 255/389/128 256/390/129
f 209/387/126 243/391/130 211/392/131
f 224/388/127 225/393/132 210/385/124
f 211/392/131 244/394/133 212/395/134
f 213/396/135 244/394/133 245/397/136
f 213/396/135 246/398/137 214/399/138
f 214/399/138 247/400/139 215/401/140
f 215/401/140 248/402/141 216/403/142
f 208/404/143 210/405/124 193/406/26
f 207/407/144 224/408/127 208/404/143
f 222/409/145 207/407/144 206/410/146
f 205/411/19 222/409/145 206/410/146
f 220/412/147 205/411/19 204/413/148
f 203/414/149 220/412/147 204/413/148
f 218/415/150 203/414/149 202/416/151
f 217/417/152 202/416/151 201/418/24
f 200/419/153 217/417/152 201/418/24
f 215/420/140 200/419/153 199/421/154
f 198/422/155 215/420/140 199/421/154
f 213/423/135 198/422/155 197/424/25
f 196/425/156 213/423/135 197/424/25
f 211/426/131 196/427/156 195/428/157
f 194/429/158 211/426/131 195/428/157
f 210/405/124 194/429/158 193/406/26
f 226/430/26 242/431/125 225/432/132
f 242/431/125 228/433/157 243/434/130
f 243/434/130 229/435/156 244/436/133
f 229/437/156 245/438/136 244/439/133
f 245/438/136 231/440/155 246/441/137
f 231/440/155 247/442/139 246/441/137
f 232/443/154 248/444/141 247/442/139
f 233/445/153 249/446/159 248/444/141
f 234/447/24 250/448/160 249/446/159
f 235/449/151 251/450/161 250/448/160
f 236/451/149 252/452/162 251/450/161
f 252/452/162 238/453/19 253/454/163
f 238/453/19 254/455/164 253/454/163
f 254/455/164 240/456/144 255/457/128
f 240/456/144 256/458/129 255/457/128
f 241/459/143 225/432/132 256/458/129
f 223/460/165 254/461/164 255/389/128
f 221/462/166 254/461/164 222/463/145
f 221/462/166 252/464/162 253/465/163
f 219/466/167 252/464/162 220/467/147
f 219/466/167 250/468/160 251/469/161
f 217/470/152 250/468/160 218/471/150
f 217/470/152 248/402/141 249/472/159
s 53
f 276/473/168 265/474/169 263/475/115
f 277/476/170 264/350/106 265/474/169
f 278/348/104 268/477/171 280/478/172
f 268/477/171 279/479/107 280/478/172
f 269/358/114 259/480/173 271/481/110
f 259/480/173 270/355/111 271/481/110
f 273/349/105 262/482/174 260/347/103
f 274/483/175 261/356/112 262/484/174
f 257/485/176 265/486/169 267/487/177
s 51
f 136/488/26 127/489/121 189/338/101
f 189/338/101 187/490/117 125/491/119
f 189/338/101 125/491/119 137/492/26
f 134/493/26 136/488/26 189/338/101
f 133/340/26 134/493/26 189/338/101
f 189/338/101 137/492/26 135/339/26
f 142/494/24 126/495/118 188/341/102
f 188/341/102 190/373/120 128/375/122
f 188/341/102 128/375/122 141/496/24
f 140/497/24 142/494/24 188/341/102
f 138/343/24 140/497/24 188/341/102
f 188/341/102 141/496/24 139/342/24
s 52
f 146/498/26 129/377/121 191/344/101
f 191/344/101 185/367/117 131/369/119
f 191/344/101 131/369/119 147/499/26
f 144/500/26 146/498/26 191/344/101
f 143/346/26 144/500/26 191/344/101
f 191/344/101 147/499/26 145/345/26
s 53
f 260/347/103 267/487/177 278/348/104
f 264/350/106 275/353/109 279/351/107
f 273/349/105 278/348/104 280/501/172
f 280/501/172 279/351/107 275/353/109
f 275/353/109 277/502/170 276/503/168
f 276/503/168 269/504/114 271/354/110
f 271/354/110 270/355/111 272/357/113
f 272/357/113 274/505/175 273/349/105
f 273/349/105 280/501/172 275/353/109
f 275/353/109 276/503/168 271/354/110
f 271/354/110 272/357/113 273/349/105
f 270/355/111 257/506/176 261/356/112
f 269/358/114 276/507/168 263/359/115
s 35
f 158/363/46 156/508/44 154/509/41
f 154/509/41 184/510/72 182/511/70
f 182/511/70 180/512/68 178/513/66
f 178/513/66 176/514/64 174/361/62
f 174/361/62 172/515/60 170/516/58
f 170/516/58 168/517/56 166/362/54
f 166/362/54 164/518/52 162/519/50
f 162/519/50 160/520/48 158/363/46
f 158/363/46 154/509/41 182/511/70
f 182/511/70 178/513/66 174/361/62
f 174/361/62 170/516/58 166/362/54
f 166/362/54 162/519/50 158/363/46
f 158/363/46 182/511/70 174/361/62
f 183/366/71 153/521/43 155/522/42
f 155/522/42 157/523/45 159/524/47
f 159/524/47 161/525/49 163/526/51
f 163/526/51 165/527/53 167/364/55
f 167/364/55 169/528/57 171/529/59
f 171/529/59 173/530/61 175/365/63
f 175/365/63 177/531/65 179/532/67
f 179/532/67 181/533/69 183/366/71
f 183/366/71 155/522/42 159/524/47
f 159/524/47 163/526/51 167/364/55
f 167/364/55 171/529/59 175/365/63
f 175/365/63 179/532/67 183/366/71
f 183/366/71 159/524/47 167/364/55
s 52
f 185/367/117 186/534/102 132/368/118
s 51
f 187/370/117 188/535/102 126/371/118
f 190/373/120 189/536/101 127/374/121
s 52
f 192/376/120 191/344/101 129/377/121
f 132/537/118 186/538/102 192/379/120
f 192/379/120 130/539/123 152/540/24
f 192/379/120 152/540/24 149/541/24
f 151/542/24 132/537/118 192/379/120
f 150/381/24 151/542/24 192/379/120
f 192/379/120 149/541/24 148/380/24
s 51
f 189/382/101 190/373/120 188/341/102
s 52
f 191/344/101 192/543/120 186/384/102
s 54
f 210/385/124 225/393/132 242/386/125
f 224/388/127 223/460/165 255/389/128
f 209/387/126 242/386/125 243/391/130
f 224/388/127 256/390/129 225/393/132
f 211/392/131 243/391/130 244/394/133
f 213/396/135 212/395/134 244/394/133
f 213/396/135 245/397/136 246/398/137
f 214/399/138 246/398/137 247/400/139
f 215/401/140 247/400/139 248/402/141
f 208/404/143 224/408/127 210/405/124
f 207/407/144 223/544/165 224/408/127
f 222/409/145 223/544/165 207/407/144
f 205/411/19 221/545/166 222/409/145
f 220/412/147 221/545/166 205/411/19
f 203/414/149 219/546/167 220/412/147
f 218/415/150 219/546/167 203/414/149
f 217/417/152 218/415/150 202/416/151
f 200/419/153 216/547/142 217/417/152
f 215/420/140 216/547/142 200/419/153
f 198/422/155 214/548/138 215/420/140
f 213/423/135 214/548/138 198/422/155
f 196/425/156 212/549/134 213/423/135
f 211/426/131 212/550/134 196/427/156
f 194/429/158 209/551/126 211/426/131
f 210/405/124 209/551/126 194/429/158
f 226/430/26 227/552/158 242/431/125
f 242/431/125 227/552/158 228/433/157
f 243/434/130 228/433/157 229/435/156
f 229/437/156 230/553/25 245/438/136
f 245/438/136 230/553/25 231/440/155
f 231/440/155 232/443/154 247/442/139
f 232/443/154 233/445/153 248/444/141
f 233/445/153 234/447/24 249/446/159
f 234/447/24 235/449/151 250/448/160
f 235/449/151 236/451/149 251/450/161
f 236/451/149 237/554/148 252/452/162
f 252/452/162 237/554/148 238/453/19
f 238/453/19 239/555/146 254/455/164
f 254/455/164 239/555/146 240/456/144
f 240/456/144 241/459/143 256/458/129
f 241/459/143 226/430/26 225/432/132
f 223/460/165 222/463/145 254/461/164
f 221/462/166 253/465/163 254/461/164
f 221/462/166 220/467/147 252/464/162
f 219/466/167 251/469/161 252/464/162
f 219/466/167 218/471/150 250/468/160
f 217/470/152 249/472/159 250/468/160
f 217/470/152 216/403/142 248/402/141
s 53
f 276/473/168 277/476/170 265/474/169
f 277/476/170 275/353/109 264/350/106
f 278/348/104 267/487/177 268/477/171
f 268/477/171 266/556/108 279/479/107
f 269/358/114 258/360/116 259/480/173
f 259/480/173 257/506/176 270/355/111
f 273/349/105 274/557/175 262/482/174
f 274/483/175 272/357/113 261/356/112
f 267/487/177 260/347/103 262/558/174
f 262/558/174 261/559/112 257/485/176
f 257/485/176 259/560/173 258/561/116
f 258/561/116 263/562/115 265/486/169
f 265/486/169 264/563/106 266/564/108
f 266/564/108 268/565/171 267/487/177
f 267/487/177 262/558/174 257/485/176
f 257/485/176 258/561/116 265/486/169
f 265/486/169 266/564/108 267/487/177
