# Blender 5.2.0 LTS
# www.blender.org
mtllib brazouno.mtl
g RoverModificado.003_RoverModificado.003
v 2.612357 2.920984 0.493131
v 2.470937 2.920376 0.493131
v 2.814536 2.579726 0.493131
v 2.813926 2.721146 0.493131
v 2.470937 2.920376 -0.452789
v 2.612357 2.920984 -0.452789
v 2.813926 2.721146 -0.452789
v 2.814536 2.579726 -0.452789
v 2.814536 2.579726 -0.311669
v 2.813926 2.721146 -0.311669
v 2.612357 2.920984 -0.311669
v 2.470937 2.920376 -0.311669
v 2.470937 2.920376 0.352011
v 2.612357 2.920984 0.352011
v 2.813926 2.721146 0.352011
v 2.814536 2.579726 0.352011
v 0.069161 -0.152606 -0.325427
v 0.069162 -0.152606 0.365774
v -0.000711 -0.199731 -0.325427
v -0.000711 -0.199731 0.365774
v -0.083300 -0.216527 -0.325427
v -0.083300 -0.216527 0.365774
v -0.166029 -0.200444 -0.325427
v -0.166029 -0.200443 0.365774
v -0.236307 -0.153923 -0.325427
v -0.236307 -0.153923 0.365774
v -0.283431 -0.084050 -0.325427
v -0.283430 -0.084050 0.365774
v -0.300229 -0.001461 -0.325427
v -0.300229 -0.001461 0.365772
v -0.284143 0.081267 -0.325427
v -0.284143 0.081267 0.365772
v -0.237622 0.151543 -0.325427
v -0.237622 0.151544 0.365772
v -0.167750 0.198669 -0.325427
v -0.167750 0.198669 0.365772
v -0.085162 0.215466 -0.325427
v -0.085162 0.215466 0.365772
v -0.002432 0.199382 -0.325427
v -0.002432 0.199382 0.365772
v 0.067844 0.152861 -0.325427
v 0.067844 0.152861 0.365772
v 0.114968 0.082988 -0.325427
v 0.114968 0.082988 0.365772
v 0.131766 0.000400 -0.325427
v 0.131766 0.000400 0.365772
v 0.115682 -0.082329 -0.325427
v 0.115682 -0.082329 0.365774
v 2.578183 2.429274 -0.519829
v 2.578183 2.429274 0.560171
v 2.451132 2.376005 -0.519829
v 2.451132 2.376005 0.560171
v 2.323627 2.428178 -0.519829
v 2.323627 2.428178 0.560171
v 2.270358 2.555228 -0.519829
v 2.270358 2.555228 0.560171
v 2.322529 2.682732 -0.519829
v 2.322529 2.682732 0.560171
v 2.449580 2.736002 -0.519829
v 2.449580 2.736002 0.560171
v 2.577086 2.683830 -0.519829
v 2.577086 2.683830 0.560171
v 2.630354 2.556781 -0.519829
v 2.630354 2.556781 0.560171
v 2.578183 2.429274 0.493131
v 2.578183 2.429274 -0.452789
v 2.451132 2.376005 0.493131
v 2.451132 2.376005 -0.452789
v 2.323627 2.428178 0.493131
v 2.323627 2.428178 -0.452789
v 2.270358 2.555228 0.493131
v 2.270358 2.555228 -0.452789
v 2.322529 2.682732 0.493131
v 2.322529 2.682732 -0.452789
v 2.449580 2.736002 0.493131
v 2.449580 2.736002 -0.452789
v 2.577086 2.683830 0.493131
v 2.577086 2.683830 -0.452789
v 2.630354 2.556781 0.493131
v 2.630354 2.556781 -0.452789
v -0.448410 -0.024253 0.493133
v -0.447802 -0.165673 0.493133
v -0.477395 -0.095088 0.493133
v -0.246232 -0.365510 0.493133
v -0.104813 -0.364902 0.493133
v -0.175396 -0.394495 0.493133
v -0.447801 -0.165674 -0.452786
v -0.448410 -0.024253 -0.452786
v -0.477395 -0.095088 -0.452786
v -0.104813 -0.364902 -0.452786
v -0.246232 -0.365510 -0.452786
v -0.175395 -0.394495 -0.452786
v -0.448410 -0.024253 -0.311666
v -0.447802 -0.165674 -0.311666
v -0.477396 -0.095088 -0.311666
v -0.246232 -0.365510 -0.311666
v -0.104813 -0.364902 -0.311666
v -0.175396 -0.394495 -0.311666
v -0.104813 -0.364902 0.352014
v -0.246232 -0.365510 0.352014
v -0.175396 -0.394495 0.352014
v -0.447802 -0.165673 0.352014
v -0.448410 -0.024253 0.352014
v -0.477395 -0.095088 0.352014
vn -0.0000 -0.0000 1.0000
vn -0.8339 0.5520 -0.0000
vn -0.7101 0.7041 -0.0000
vn 0.7101 -0.7041 -0.0000
vn 0.5591 -0.8291 -0.0000
vn -0.5520 -0.8339 -0.0000
vn -0.8291 -0.5591 -0.0000
vn 0.5592 -0.8291 -0.0000
vn 0.7040 0.7102 -0.0000
vn -0.0000 -0.0000 -1.0000
vn -0.8291 -0.5592 -0.0000
vn -0.0043 1.0000 -0.0000
vn 1.0000 0.0043 -0.0000
vn 0.7102 -0.7040 -0.0000
vn 0.3867 -0.9222 -0.0000
vn 0.0043 -1.0000 -0.0000
vn -0.3787 -0.9255 -0.0000
vn -0.7041 -0.7101 -0.0000
vn -0.9222 -0.3867 -0.0000
vn -1.0000 -0.0043 -0.0000
vn -0.9255 0.3787 -0.0000
vn -0.7102 0.7040 -0.0000
vn -0.7102 0.7041 -0.0000
vn -0.3867 0.9222 -0.0000
vn 0.3787 0.9255 -0.0000
vn 0.7041 0.7101 -0.0000
vn 0.9222 0.3867 -0.0000
vn 0.9255 -0.3787 -0.0000
vt 0.046828 0.461009
vt 0.046828 0.157667
vt 0.073616 0.164646
vt 0.083291 0.454278
vt 0.073442 0.164895
vt 0.083291 0.164895
vt 0.117058 0.164895
vt 0.126907 0.454278
vt 0.117058 0.454278
vt 0.083465 0.484522
vt 0.073616 0.464713
vt 0.083465 0.464713
vt 0.117232 0.454030
vt 0.127081 0.164646
vt 0.127081 0.454030
vt 0.083465 0.454030
vt 0.083465 0.164646
vt 0.127081 0.154776
vt 0.117232 0.134967
vt 0.127081 0.134967
vt 0.090269 0.461257
vt 0.083291 0.484771
vt 0.073442 0.464961
vt 0.083291 0.464961
vt 0.126907 0.125347
vt 0.117058 0.135216
vt 0.117058 0.125347
vt 0.117232 0.154777
vt 0.127081 0.125097
vt 0.117232 0.125097
vt 0.126907 0.155025
vt 0.126907 0.164895
vt 0.126907 0.135216
vt 0.087145 0.484830
vt 0.122878 0.480473
vt 0.122878 0.484830
vt 0.087145 0.480473
vt 0.122878 0.476116
vt 0.087145 0.476116
vt 0.122878 0.471759
vt 0.087145 0.471759
vt 0.122878 0.467402
vt 0.087145 0.467402
vt 0.122878 0.463045
vt 0.087145 0.532756
vt 0.122878 0.528399
vt 0.122878 0.532756
vt 0.087145 0.528399
vt 0.122878 0.524042
vt 0.087145 0.524042
vt 0.122878 0.519686
vt 0.087145 0.519685
vt 0.122878 0.515329
vt 0.087145 0.515329
vt 0.122878 0.510972
vt 0.087145 0.510972
vt 0.122878 0.506615
vt 0.087145 0.506615
vt 0.122878 0.502258
vt 0.087145 0.502258
vt 0.122878 0.497901
vt 0.087145 0.497901
vt 0.122878 0.493544
vt 0.087145 0.493544
vt 0.122878 0.489187
vt 0.087145 0.489187
vt 0.057061 0.038700
vt 0.068931 0.044477
vt 0.057061 0.044477
vt 0.091931 0.038640
vt 0.103801 0.044417
vt 0.091931 0.044417
vt 0.068931 0.038700
vt 0.080801 0.044477
vt 0.080061 0.044417
vt 0.080061 0.038640
vt 0.080801 0.038700
vt 0.092671 0.044477
vt 0.068191 0.044417
vt 0.068191 0.038640
vt 0.104541 0.038700
vt 0.092671 0.038700
vt 0.056321 0.044417
vt 0.056321 0.038640
vt 0.116411 0.038700
vt 0.104541 0.044477
vt 0.044451 0.044417
vt 0.044451 0.038640
vt 0.128281 0.044477
vt 0.116411 0.044477
vt 0.032581 0.044417
vt 0.032581 0.038640
vt 0.084172 0.130312
vt 0.073261 0.103970
vt 0.099603 0.093058
vt 0.033321 0.038700
vt 0.045191 0.044477
vt 0.033321 0.044477
vt 0.127541 0.038640
vt 0.115671 0.044417
vt 0.115671 0.038640
vt 0.045191 0.038700
vt 0.103801 0.038640
vt 0.099740 0.129955
vt 0.073398 0.119043
vt 0.084309 0.092701
vt 0.073616 0.454030
vt 0.083465 0.459371
vt 0.073616 0.459371
vt 0.083291 0.495454
vt 0.073442 0.490112
vt 0.083291 0.490112
vt 0.073442 0.484771
vt 0.073616 0.495205
vt 0.083465 0.489863
vt 0.083465 0.495205
vt 0.073616 0.489864
vt 0.073442 0.454278
vt 0.083291 0.459620
vt 0.073442 0.459620
vt 0.071572 0.458965
vt 0.066637 0.461009
vt 0.041893 0.458965
vt 0.039849 0.454030
vt 0.039849 0.164646
vt 0.066637 0.157667
vt 0.073616 0.484522
vt 0.117232 0.164646
vt 0.090270 0.157916
vt 0.110079 0.157916
vt 0.115013 0.459213
vt 0.110079 0.461257
vt 0.085335 0.459213
vt 0.117058 0.155025
vt 0.087145 0.463046
vt 0.128281 0.038700
vt 0.110514 0.103970
vt 0.110514 0.119401
vt 0.099603 0.130312
vt 0.073261 0.119401
vt 0.084172 0.093058
vt 0.127541 0.044417
vt 0.099740 0.092701
vt 0.110652 0.103612
vt 0.110652 0.119043
vt 0.084309 0.129955
vt 0.073398 0.103612
vt 0.073442 0.495454
vt 0.945445 0.148636
vt 0.879277 0.880651
vt 0.862039 0.863413
vt 0.759513 0.880651
vt 0.759513 0.131398
vt 0.825680 0.148636
vt 0.862040 0.148636
vt 0.879278 0.131398
vt 0.928207 0.131398
vt 0.945444 0.863413
vt 0.940395 0.875602
vt 0.928206 0.880651
vt 0.867088 0.875602
vt 0.825680 0.863413
vt 0.820631 0.875602
vt 0.808442 0.880651
vt 0.747324 0.875602
vt 0.742275 0.863413
vt 0.742275 0.148636
vt 0.808442 0.131398
s 1
g off
g RoverModificado.003_SpacialRoverExploreralumWhite
usemtl SpacialRoverExploreralumWhite
f 96/1/1 10/2/1 12/3/1
s 2
f 103/4/2 2/5/3 13/6/3
s 3
f 16/7/4 85/8/5 99/9/5
s 4
f 91/10/6 94/11/7 87/12/7
s 5
f 90/13/8 9/14/4 97/15/5
s 6
f 88/16/2 12/3/3 5/17/3
s 7
f 10/18/9 6/19/9 11/20/9
s 8
f 16/7/10 102/21/10 103/4/10
s 9
f 100/22/6 82/23/7 102/24/11
s 10
f 2/25/12 14/26/12 13/27/12
s 11
f 9/14/13 7/28/13 10/18/13
s 12
f 12/29/12 6/19/12 5/30/12
s 13
f 16/7/13 4/31/13 3/32/13
s 14
f 4/31/9 14/26/9 1/33/9
s 15
f 18/34/14 19/35/15 17/36/14
f 20/37/15 21/38/16 19/35/15
f 22/39/16 23/40/17 21/38/16
f 24/41/17 25/42/18 23/40/17
f 26/43/18 27/44/19 25/42/18
f 28/45/19 29/46/20 27/47/19
f 30/48/20 31/49/21 29/46/20
f 32/50/21 33/51/22 31/49/21
f 34/52/23 35/53/24 33/51/22
f 36/54/24 37/55/12 35/53/24
f 38/56/12 39/57/25 37/55/12
f 40/58/25 41/59/26 39/57/25
f 42/60/26 43/61/27 41/59/26
f 44/62/27 45/63/13 43/61/27
f 46/64/13 47/65/28 45/63/13
f 48/66/28 17/36/14 47/65/28
s 16
f 50/67/15 67/68/15 65/69/15
s 17
f 51/70/15 66/71/15 68/72/15
s 18
f 52/73/17 69/74/17 67/68/17
s 19
f 51/70/17 70/75/17 53/76/17
s 20
f 54/77/19 71/78/19 69/74/19
s 21
f 53/76/19 72/79/19 55/80/19
s 22
f 58/81/21 71/78/21 56/82/21
s 23
f 55/80/21 74/83/21 57/84/21
s 24
f 60/85/24 73/86/24 58/81/24
s 25
f 57/84/24 76/87/24 59/88/24
s 26
f 60/85/25 77/89/25 75/90/25
s 27
f 59/88/25 78/91/25 61/92/25
s 28
f 52/93/1 64/94/1 60/95/1
s 29
f 62/96/27 79/97/27 77/98/27
s 30
f 61/99/27 80/100/27 63/101/27
s 31
f 64/102/28 65/69/28 79/97/28
s 32
f 49/103/28 80/100/28 66/71/28
s 33
f 53/104/10 57/105/10 61/106/10
s 6
f 93/107/2 89/108/21 95/109/21
s 4
f 95/109/19 87/12/7 94/11/7
s 3
f 99/110/5 86/111/15 101/112/15
s 9
f 101/112/17 84/113/6 100/22/6
s 5
f 97/114/5 92/115/15 90/116/8
s 4
f 98/117/17 91/10/6 92/115/17
s 2
f 81/118/2 104/119/21 83/120/21
s 9
f 83/120/19 102/24/11 82/23/7
s 1
f 12/3/1 93/107/1 95/121/1
f 95/121/1 94/122/1 96/1/1
f 96/1/1 98/123/1 97/124/1
f 97/124/1 9/125/1 10/2/1
f 10/2/1 11/126/1 12/3/1
f 12/3/1 95/121/1 96/1/1
f 96/1/1 97/124/1 10/2/1
s 2
f 103/4/2 81/118/2 2/5/3
s 3
f 16/7/4 3/32/4 85/8/5
s 4
f 91/10/6 96/127/6 94/11/7
s 5
f 90/13/8 8/128/4 9/14/4
s 6
f 88/16/2 93/107/2 12/3/3
s 7
f 10/18/9 7/28/9 6/19/9
s 8
f 103/4/10 13/6/10 14/129/10
f 14/129/10 15/130/10 16/7/10
f 16/7/10 99/9/10 101/131/10
f 101/131/10 100/132/10 102/21/10
f 102/21/10 104/133/10 103/4/10
f 103/4/10 14/129/10 16/7/10
f 16/7/10 101/131/10 102/21/10
s 9
f 100/22/6 84/113/6 82/23/7
s 10
f 2/25/12 1/33/12 14/26/12
s 11
f 9/14/13 8/128/13 7/28/13
s 12
f 12/29/12 11/20/12 6/19/12
s 13
f 16/7/13 15/134/13 4/31/13
s 14
f 4/31/9 15/134/9 14/26/9
s 15
f 18/34/14 20/37/15 19/35/15
f 20/37/15 22/39/16 21/38/16
f 22/39/16 24/41/17 23/40/17
f 24/41/17 26/43/18 25/42/18
f 26/43/18 28/135/19 27/44/19
f 28/45/19 30/48/20 29/46/20
f 30/48/20 32/50/21 31/49/21
f 32/50/21 34/52/23 33/51/22
f 34/52/23 36/54/24 35/53/24
f 36/54/24 38/56/12 37/55/12
f 38/56/12 40/58/25 39/57/25
f 40/58/25 42/60/26 41/59/26
f 42/60/26 44/62/27 43/61/27
f 44/62/27 46/64/13 45/63/13
f 46/64/13 48/66/28 47/65/28
f 48/66/28 18/34/14 17/36/14
s 16
f 50/67/15 52/73/15 67/68/15
s 17
f 51/70/15 49/103/15 66/71/15
s 18
f 52/73/17 54/77/17 69/74/17
s 34
f 51/70/17 68/72/17 70/75/17
s 20
f 54/77/19 56/82/19 71/78/19
s 35
f 53/76/19 70/75/19 72/79/19
s 36
f 58/81/21 73/86/21 71/78/21
s 37
f 55/80/21 72/79/21 74/83/21
s 38
f 60/85/24 75/90/24 73/86/24
s 39
f 57/84/24 74/83/24 76/87/24
s 26
f 60/85/25 62/136/25 77/89/25
s 40
f 59/88/25 76/87/25 78/91/25
s 28
f 60/95/1 58/137/1 56/138/1
f 56/138/1 54/139/1 52/93/1
f 52/93/1 50/140/1 64/94/1
f 64/94/1 62/141/1 60/95/1
f 60/95/1 56/138/1 52/93/1
s 29
f 62/96/27 64/102/27 79/97/27
s 41
f 61/99/27 78/142/27 80/100/27
s 31
f 64/102/28 50/67/28 65/69/28
s 32
f 49/103/28 63/101/28 80/100/28
s 33
f 61/106/10 63/143/10 49/144/10
f 49/144/10 51/145/10 53/104/10
f 53/104/10 55/146/10 57/105/10
f 57/105/10 59/147/10 61/106/10
f 61/106/10 49/144/10 53/104/10
s 6
f 93/107/2 88/16/2 89/108/21
s 4
f 95/109/19 89/108/19 87/12/7
s 3
f 99/110/5 85/148/5 86/111/15
s 9
f 101/112/17 86/111/17 84/113/6
s 5
f 97/114/5 98/117/15 92/115/15
s 4
f 98/117/17 96/127/6 91/10/6
s 2
f 81/118/2 103/4/2 104/119/21
s 9
f 83/120/19 104/119/19 102/24/11
s 42
g RoverModificado.003_SpacialRoverExploreralumArm
usemtl SpacialRoverExploreralumArm
f 8/149/10 87/150/10 88/151/10
s 43
f 84/152/1 4/153/1 2/154/1
s 42
f 88/151/10 5/155/10 6/156/10
f 6/156/10 7/157/10 8/149/10
f 8/149/10 90/158/10 92/159/10
f 92/159/10 91/160/10 87/150/10
f 87/150/10 89/161/10 88/151/10
f 88/151/10 6/156/10 8/149/10
f 8/149/10 92/159/10 87/150/10
s 43
f 2/154/1 81/162/1 83/163/1
f 83/163/1 82/164/1 84/152/1
f 84/152/1 86/165/1 85/166/1
f 85/166/1 3/167/1 4/153/1
f 4/153/1 1/168/1 2/154/1
f 2/154/1 83/163/1 84/152/1
f 84/152/1 85/166/1 4/153/1
