# Blender 5.2.0 LTS
# www.blender.org
mtllib holocron_simple.mtl
g holocron_simple.001_holocron_simple.001
v -0.049649 2.440128 2.417217
v -0.051152 2.399781 -2.545043
v -2.521206 2.448241 -0.063388
v 2.451372 2.421759 -0.077538
v 2.517274 -2.579095 -0.002115
v 1.185055 -2.530499 1.198261
v -0.049649 2.440128 2.417217
v -0.051152 2.399781 -2.545043
v 2.646786 -0.139047 -2.493757
v 1.328995 -2.578386 -1.297838
v -2.593003 -0.085222 -2.505755
v -1.385028 -2.549476 -1.308677
v 0.140696 -2.601934 -2.558561
v -2.534944 -0.061146 2.580280
v -1.344182 -2.542571 1.294387
v -0.081432 -2.513204 2.426005
v 2.453980 -0.063388 2.477451
v -2.632201 -2.553892 -0.007226
v -2.521206 2.448241 -0.063388
v 2.451372 2.421759 -0.077538
vn 0.0012 0.9999 -0.0170
vn 0.0010 0.9999 -0.0170
vn 0.0015 0.9999 -0.0168
vn 0.0015 0.9999 -0.0170
vn 0.5055 -0.6014 0.6187
vn 0.5056 -0.6014 0.6187
vn 0.4910 -0.6002 0.6313
vn 0.9999 0.0012 -0.0165
vn 0.9999 0.0019 -0.0170
vn 0.9999 0.0019 -0.0169
vn -0.5667 0.5876 0.5776
vn -0.5666 0.5876 0.5776
vn -0.5666 0.5877 0.5775
vn 0.5776 0.5876 0.5666
vn 0.5776 0.5876 0.5667
vn 0.5776 0.5877 0.5666
vn -0.0006 0.0170 -0.9999
vn -0.0008 0.0171 -0.9999
vn -0.0009 0.0171 -0.9999
vn 0.5667 0.5874 -0.5777
vn 0.5665 0.5876 -0.5777
vn 0.5668 0.5874 -0.5777
vn -0.5788 0.5849 -0.5682
vn -0.5789 0.5850 -0.5681
vn 0.6176 -0.5877 -0.5227
vn 0.6176 -0.5876 -0.5228
vn 0.6166 -0.5880 -0.5235
vn -0.5565 -0.5649 -0.6092
vn -0.5564 -0.5650 -0.6093
vn -0.5865 -0.5652 -0.5801
vn -0.5585 -0.5875 0.5856
vn -0.5582 -0.5875 0.5859
vn -0.5377 -0.5876 0.6046
vn 0.0011 0.0174 0.9998
vn 0.0011 0.0175 0.9998
vn 0.0044 -0.9998 -0.0200
vn -0.0033 -0.9997 -0.0224
vn -0.0063 -0.9999 -0.0136
vn -0.9992 0.0358 -0.0171
vn -0.9992 0.0359 -0.0171
vn -0.9992 0.0364 -0.0167
vn -0.0008 0.0170 -0.9999
vn 0.9999 0.0018 -0.0169
vn 0.5208 -0.6020 0.6052
vn 0.6185 -0.5876 -0.5216
vn -0.5263 -0.5634 -0.6368
vn -0.5779 -0.5873 0.5667
vn -0.0172 -0.9998 -0.0128
vn 0.0022 -0.9999 -0.0119
vn 0.0082 -0.9999 -0.0114
vn 0.0092 -0.9996 -0.0283
vn -0.0078 -1.0000 -0.0019
vt 0.486058 0.858616
vt 0.760546 0.864109
vt 0.620566 0.998040
vt 0.626783 0.722995
vt 0.131165 0.539299
vt 0.130945 0.285828
vt 0.279781 0.286652
vt 1.013662 0.859342
vt 0.718362 0.859977
vt 0.864080 0.709760
vt 1.012522 0.259828
vt 0.835408 0.543331
vt 0.691448 0.253387
vt 0.739434 0.288972
vt 0.607081 0.518584
vt 0.475053 0.286789
vt 0.145937 1.007507
vt 0.144150 0.719138
vt 0.294842 0.870317
vt 0.519843 0.281472
vt 0.388678 0.545560
vt 0.225953 0.281913
vt 0.710193 0.505253
vt 0.553300 0.755562
vt 0.419364 0.495540
vt 0.122240 0.304162
vt 0.128510 0.035464
vt 0.282737 0.035652
vt 0.373463 -0.033844
vt 0.380520 0.248752
vt 0.210448 0.254963
vt 0.796027 0.471225
vt 0.798403 0.725029
vt 0.656716 0.725686
vt 0.613404 0.279289
vt 0.616092 0.000535
vt 0.753966 0.143547
vt 0.148050 0.685642
vt 0.153449 0.540488
vt 0.304641 0.549090
vt 0.385830 1.004946
vt 0.391777 0.708264
vt 0.535292 0.859839
vt 0.472915 0.139151
vt 0.233669 0.855675
vt -0.006840 0.857519
vt 0.864526 1.006730
vt -0.015410 0.286120
vt -0.027951 0.032244
vt 0.566509 0.259125
vt 0.951366 0.728221
vt 0.367040 0.624777
vt 0.289255 0.687764
vt 0.215067 0.752438
vt 0.080122 0.609322
vt 0.242168 0.475317
s 1
g off
g holocron_simple.001_Material.002
usemtl Material.002
f 1/1/1 2/2/2 3/3/3
f 1/1/1 4/4/4 2/2/2
s 2
f 17/5/5 6/6/6 5/7/7
s 3
f 17/8/8 9/9/9 20/10/10
s 4
f 19/11/11 14/12/12 7/13/13
s 5
f 7/14/14 17/15/15 20/16/16
s 6
f 13/17/17 8/18/18 9/19/19
s 7
f 20/20/20 9/21/21 8/22/22
s 8
f 8/23/23 11/24/24 19/25/23
s 9
f 9/26/25 10/27/26 13/28/27
s 10
f 11/29/28 12/30/29 18/31/30
s 11
f 14/32/31 15/33/32 16/34/33
s 12
f 16/35/34 7/36/34 14/37/35
s 13
f 15/38/36 12/39/37 10/40/38
s 14
f 18/41/39 19/42/39 11/43/40
s 12
f 16/35/34 17/44/34 7/36/34
s 14
f 18/41/39 14/45/41 19/42/39
s 6
f 13/17/17 11/46/42 8/18/18
s 3
f 17/8/8 5/47/43 9/9/9
s 2
f 17/5/5 16/48/44 6/6/6
s 9
f 9/26/25 5/49/45 10/27/26
s 10
f 11/29/28 13/50/46 12/30/29
s 11
f 14/32/31 18/51/47 15/33/32
s 13
f 10/40/38 5/52/48 6/53/49
f 6/53/49 16/54/50 15/38/36
f 15/38/36 18/55/51 12/39/37
f 12/39/37 13/56/52 10/40/38
f 10/40/38 6/53/49 15/38/36
